<svg width="392" height="232" viewBox="0 0 392 232" fill="none" xmlns="http://www.w3.org/2000/svg">
<path d="M137 135.6H114.2V165H82.6V135.6H7.2V113.8L73.2 25H107.2L46 109.2H83.6V83H114.2V109.2H137V135.6ZM206.691 167.4C195.091 167.4 184.757 164.533 175.691 158.8C166.624 153.067 159.491 144.8 154.291 134C149.224 123.067 146.691 110.067 146.691 95C146.691 79.9333 149.224 67 154.291 56.2C159.491 45.2667 166.624 36.9333 175.691 31.2C184.757 25.4667 195.091 22.6 206.691 22.6C218.291 22.6 228.624 25.4667 237.691 31.2C246.757 36.9333 253.824 45.2667 258.891 56.2C264.091 67 266.691 79.9333 266.691 95C266.691 110.067 264.091 123.067 258.891 134C253.824 144.8 246.757 153.067 237.691 158.8C228.624 164.533 218.291 167.4 206.691 167.4ZM206.691 140C215.224 140 221.891 136.333 226.691 129C231.624 121.667 234.091 110.333 234.091 95C234.091 79.6667 231.624 68.3333 226.691 61C221.891 53.6667 215.224 50 206.691 50C198.291 50 191.624 53.6667 186.691 61C181.891 68.3333 179.491 79.6667 179.491 95C179.491 110.333 181.891 121.667 186.691 129C191.624 136.333 198.291 140 206.691 140ZM345.88 82C358.146 84 367.546 88.6 374.08 95.8C380.613 102.867 383.88 111.667 383.88 122.2C383.88 130.333 381.746 137.867 377.48 144.8C373.213 151.6 366.68 157.067 357.88 161.2C349.213 165.333 338.546 167.4 325.88 167.4C316.013 167.4 306.28 166.133 296.68 163.6C287.213 160.933 279.146 157.2 272.48 152.4L285.08 127.6C290.413 131.6 296.546 134.733 303.48 137C310.546 139.133 317.746 140.2 325.08 140.2C333.213 140.2 339.613 138.667 344.28 135.6C348.946 132.4 351.28 127.933 351.28 122.2C351.28 110.733 342.546 105 325.08 105H310.28V83.6L339.08 51H279.48V25H377.48V46L345.88 82Z" fill="#48ACB0" fill-opacity="0.8"/>
<path d="M309.014 149.824C309.306 149.472 309.517 149.061 309.633 148.619C309.749 148.176 309.767 147.714 309.684 147.264C309.602 146.814 309.423 146.388 309.158 146.015C308.893 145.642 308.55 145.332 308.152 145.106L310.17 134.175L304.85 136.427L303.75 146.462C303.415 147.155 303.346 147.947 303.556 148.688C303.765 149.429 304.24 150.067 304.888 150.481C305.537 150.895 306.316 151.058 307.076 150.936C307.836 150.815 308.526 150.42 309.014 149.824V149.824Z" fill="#FFB6B6"/>
<path d="M312.26 117.472L310.569 111.789L298.649 93.1895C297.986 92.415 297.193 91.7616 296.307 91.2584C294.545 90.2513 292.491 89.8786 290.488 90.2022C288.484 90.5259 286.652 91.5265 285.297 93.0371C283.942 94.5478 283.146 96.4772 283.041 98.5039C282.936 100.531 283.529 102.532 284.72 104.175C284.966 104.518 285.237 104.842 285.532 105.143L300.971 121.067L301.85 121.975L303.239 125.49L303.787 141.517L304.278 141.634L308.605 142.653L309.21 142.796L310.222 137.561L310.857 135.059C311.397 132.924 311.669 130.732 311.669 128.53C311.669 127.852 311.645 127.17 311.592 126.492L312.26 117.472Z" fill="#00696E"/>
<path d="M295.873 227.987H291.733L289.764 212.021L295.873 212.021L295.873 227.987Z" fill="#FFB6B6"/>
<path d="M295.763 226.634L291.346 224.84L291.216 224.787L288.777 226.634C287.438 226.634 286.152 227.151 285.185 228.076C284.218 229.002 283.646 230.265 283.588 231.602C283.582 231.676 283.582 231.753 283.582 231.829V232H296.929V226.634H295.763Z" fill="#36354A"/>
<path d="M287.99 219.73L284.422 221.829L274.627 209.067L279.893 205.969L287.99 219.73Z" fill="#FFB6B6"/>
<path d="M290.454 221.834L289.969 221.008L288.215 218.028L287.303 218.566L287.21 218.62L282.492 219.315L282.352 219.335L281.189 222.164C280.601 222.51 280.087 222.969 279.676 223.513C279.265 224.058 278.965 224.678 278.794 225.339C278.622 225.999 278.583 226.687 278.678 227.363C278.772 228.039 278.999 228.689 279.345 229.277L279.432 229.421L290.935 222.652L290.454 221.834Z" fill="#36354A"/>
<path d="M301.115 130.377C303.056 136.231 302.851 142.584 300.649 149.403L300.074 172.845L298.228 187.632C299.341 190.529 299.913 193.607 299.913 196.71C299.905 204.846 299.358 216.405 296.584 221.834H290.021L288.539 197.655L286.771 185.498L286.553 172.47L286.363 161.108L279.227 171.544L272.292 181.685L279.185 193.311L285.198 212.021L278.851 217.366L271.649 203.714L268.159 199.659L258.632 179.035L259.489 176.164C261.252 170.25 263.813 164.604 267.1 159.382V159.382L276.576 137.388L301.115 130.377Z" fill="#C8D7D7"/>
<path d="M301.957 128.423L300.874 126.258L300.971 121.067L301.295 103.513C301.334 101.239 300.912 98.9815 300.055 96.8754C299.198 94.7692 297.923 92.8585 296.307 91.2584C295.348 90.303 294.276 89.4693 293.113 88.7761L290.788 87.3862L289.612 84.3994L278.767 84.6634L278.744 87.56L278.734 88.579L274.848 94.7731L274.851 94.7999L274.931 106.072L275.092 128.51L276.164 131.988L274.544 136.037L275.406 138.617L276.094 138.506L299.274 134.801C300.327 134.463 301.222 133.753 301.79 132.803C301.904 132.618 302.003 132.423 302.087 132.222C302.34 131.617 302.459 130.964 302.436 130.308C302.414 129.653 302.25 129.01 301.957 128.423Z" fill="#00696E"/>
<path d="M283.195 80.684C288.637 80.684 293.049 76.272 293.049 70.8296C293.049 65.3871 288.637 60.9751 283.195 60.9751C277.752 60.9751 273.34 65.3871 273.34 70.8296C273.34 76.272 277.752 80.684 283.195 80.684Z" fill="#FFB6B6"/>
<path d="M289.325 78.9951C290.366 78.2628 291.42 76.8687 292.122 75.8251C293.053 74.4531 293.684 72.901 293.977 71.2693C294.269 69.6375 294.215 67.9626 293.818 66.353C293.69 65.709 293.389 65.1122 292.946 64.627C292.72 64.3901 292.425 64.2309 292.103 64.172C291.781 64.1132 291.448 64.1578 291.153 64.2995C291.302 63.8834 291.364 63.4412 291.335 63.0003C291.306 62.5593 291.188 62.1289 290.986 61.7356C290.577 60.9504 289.991 60.2713 289.273 59.7522C287.901 58.7256 286.277 58.0896 284.573 57.9116C282.868 57.7337 281.148 58.0206 279.593 58.7417C278.982 59.0354 279.962 56.8187 279.321 57.0401C278.684 57.2967 277.972 57.2941 277.338 57.0326C276.728 56.736 274.744 58.576 274.968 57.9354C274.511 58.1506 274.116 58.4778 273.82 58.8868C273.523 59.2957 273.335 59.773 273.273 60.2742C273.211 60.7754 273.276 61.2842 273.463 61.7532C273.651 62.2222 273.954 62.6362 274.344 62.9566C274.859 63.3788 275.497 63.6172 276.059 63.974C277.044 64.6468 277.749 65.657 278.04 66.8139C278.331 67.9708 278.188 69.1942 277.639 70.2532C278.22 69.8687 278.859 69.5805 279.531 69.3997C279.869 69.3123 280.222 69.3069 280.562 69.3837C280.902 69.4605 281.219 69.6174 281.486 69.8413C281.71 70.0907 281.881 70.3832 281.988 70.701C282.095 71.0188 282.135 71.355 282.108 71.6891C282.095 72.3581 281.945 73.0191 281.936 73.6881C281.911 75.6513 280.912 79.3968 282.448 80.4188C283.66 81.2254 287.904 79.995 289.325 78.9951Z" fill="#36354A"/>
<path d="M228.45 94.7988C228.683 95.1922 229 95.5297 229.377 95.7875C229.755 96.0453 230.185 96.2171 230.636 96.2909C231.087 96.3647 231.549 96.3387 231.989 96.2146C232.43 96.0905 232.837 95.8715 233.183 95.5729L242.801 101.146L242.467 95.3797L233.386 90.9712C232.845 90.4226 232.123 90.0913 231.355 90.04C230.586 89.9886 229.826 90.2209 229.218 90.6927C228.609 91.1645 228.195 91.8431 228.054 92.5999C227.912 93.3567 228.053 94.1391 228.45 94.7988V94.7988Z" fill="#FFB6B6"/>
<path d="M290.557 93.0723C290.184 91.9062 289.574 90.8299 288.765 89.9109C287.956 88.992 286.965 88.2503 285.856 87.7326C284.746 87.2149 283.542 86.9323 282.318 86.9025C281.094 86.8728 279.877 87.0965 278.743 87.5597C278.637 87.6032 278.53 87.65 278.423 87.6967L257.087 97.4089L248.782 96.4233L238.03 92.6681L237.756 93.0924L235.341 96.8243L235.003 97.3455L246.536 104.164L247.759 104.418C248.824 104.639 249.835 105.067 250.734 105.679C251.633 106.29 252.402 107.073 252.998 107.983L257.468 109.453L274.931 106.072L284.72 104.174L285.275 104.067C286.952 103.422 288.395 102.283 289.413 100.802C290.431 99.3208 290.977 97.5659 290.978 95.7685C290.979 94.8534 290.837 93.9438 290.557 93.0723V93.0723Z" fill="#00696E"/>
<path d="M125.165 201.32V205.76H132.941V208.88H125.165V215H121.277V198.2H133.973V201.32H125.165ZM144.577 215.288C142.833 215.288 141.257 214.912 139.849 214.16C138.457 213.408 137.361 212.376 136.561 211.064C135.777 209.736 135.385 208.248 135.385 206.6C135.385 204.952 135.777 203.472 136.561 202.16C137.361 200.832 138.457 199.792 139.849 199.04C141.257 198.288 142.833 197.912 144.577 197.912C146.321 197.912 147.889 198.288 149.281 199.04C150.673 199.792 151.769 200.832 152.569 202.16C153.369 203.472 153.769 204.952 153.769 206.6C153.769 208.248 153.369 209.736 152.569 211.064C151.769 212.376 150.673 213.408 149.281 214.16C147.889 214.912 146.321 215.288 144.577 215.288ZM144.577 211.976C145.569 211.976 146.465 211.752 147.265 211.304C148.065 210.84 148.689 210.2 149.137 209.384C149.601 208.568 149.833 207.64 149.833 206.6C149.833 205.56 149.601 204.632 149.137 203.816C148.689 203 148.065 202.368 147.265 201.92C146.465 201.456 145.569 201.224 144.577 201.224C143.585 201.224 142.689 201.456 141.889 201.92C141.089 202.368 140.457 203 139.993 203.816C139.545 204.632 139.321 205.56 139.321 206.6C139.321 207.64 139.545 208.568 139.993 209.384C140.457 210.2 141.089 210.84 141.889 211.304C142.689 211.752 143.585 211.976 144.577 211.976ZM167.395 215L164.155 210.32H163.963H160.579V215H156.691V198.2H163.963C165.451 198.2 166.739 198.448 167.827 198.944C168.931 199.44 169.779 200.144 170.371 201.056C170.963 201.968 171.259 203.048 171.259 204.296C171.259 205.544 170.955 206.624 170.347 207.536C169.755 208.432 168.907 209.12 167.803 209.6L171.571 215H167.395ZM167.323 204.296C167.323 203.352 167.019 202.632 166.411 202.136C165.803 201.624 164.915 201.368 163.747 201.368H160.579V207.224H163.747C164.915 207.224 165.803 206.968 166.411 206.456C167.019 205.944 167.323 205.224 167.323 204.296ZM186.676 206.264C187.636 206.568 188.388 207.08 188.932 207.8C189.476 208.504 189.748 209.376 189.748 210.416C189.748 211.888 189.172 213.024 188.02 213.824C186.884 214.608 185.22 215 183.028 215H174.34V198.2H182.548C184.596 198.2 186.164 198.592 187.252 199.376C188.356 200.16 188.908 201.224 188.908 202.568C188.908 203.384 188.708 204.112 188.308 204.752C187.924 205.392 187.38 205.896 186.676 206.264ZM178.204 201.128V205.088H182.068C183.028 205.088 183.756 204.92 184.252 204.584C184.748 204.248 184.996 203.752 184.996 203.096C184.996 202.44 184.748 201.952 184.252 201.632C183.756 201.296 183.028 201.128 182.068 201.128H178.204ZM182.74 212.072C183.764 212.072 184.532 211.904 185.044 211.568C185.572 211.232 185.836 210.712 185.836 210.008C185.836 208.616 184.804 207.92 182.74 207.92H178.204V212.072H182.74ZM192.691 198.2H196.579V215H192.691V198.2ZM200.566 198.2H208.198C210.022 198.2 211.63 198.552 213.022 199.256C214.43 199.944 215.518 200.92 216.286 202.184C217.07 203.448 217.462 204.92 217.462 206.6C217.462 208.28 217.07 209.752 216.286 211.016C215.518 212.28 214.43 213.264 213.022 213.968C211.63 214.656 210.022 215 208.198 215H200.566V198.2ZM208.006 211.808C209.686 211.808 211.022 211.344 212.014 210.416C213.022 209.472 213.526 208.2 213.526 206.6C213.526 205 213.022 203.736 212.014 202.808C211.022 201.864 209.686 201.392 208.006 201.392H204.454V211.808H208.006ZM220.394 198.2H228.026C229.85 198.2 231.458 198.552 232.85 199.256C234.258 199.944 235.346 200.92 236.114 202.184C236.898 203.448 237.29 204.92 237.29 206.6C237.29 208.28 236.898 209.752 236.114 211.016C235.346 212.28 234.258 213.264 232.85 213.968C231.458 214.656 229.85 215 228.026 215H220.394V198.2ZM227.834 211.808C229.514 211.808 230.85 211.344 231.842 210.416C232.85 209.472 233.354 208.2 233.354 206.6C233.354 205 232.85 203.736 231.842 202.808C230.85 201.864 229.514 201.392 227.834 201.392H224.282V211.808H227.834ZM253.23 211.88V215H240.222V198.2H252.918V201.32H244.086V204.968H251.886V207.992H244.086V211.88H253.23ZM271.732 198.2V215H268.54L260.164 204.8V215H256.324V198.2H259.54L267.892 208.4V198.2H271.732Z" fill="black"/>
</svg>
