<svg width="392" height="232" viewBox="0 0 392 232" fill="none" xmlns="http://www.w3.org/2000/svg">
<g clip-path="url(#clip0_300_2)">
<path d="M130 135.6H107.2V165H75.6V135.6H0.2V113.8L66.2 25H100.2L39 109.2H76.6V83H107.2V109.2H130V135.6ZM199.691 167.4C188.091 167.4 177.757 164.533 168.691 158.8C159.624 153.067 152.491 144.8 147.291 134C142.224 123.067 139.691 110.067 139.691 95C139.691 79.9333 142.224 67 147.291 56.2C152.491 45.2667 159.624 36.9333 168.691 31.2C177.757 25.4667 188.091 22.6 199.691 22.6C211.291 22.6 221.624 25.4667 230.691 31.2C239.757 36.9333 246.824 45.2667 251.891 56.2C257.091 67 259.691 79.9333 259.691 95C259.691 110.067 257.091 123.067 251.891 134C246.824 144.8 239.757 153.067 230.691 158.8C221.624 164.533 211.291 167.4 199.691 167.4ZM199.691 140C208.224 140 214.891 136.333 219.691 129C224.624 121.667 227.091 110.333 227.091 95C227.091 79.6667 224.624 68.3333 219.691 61C214.891 53.6667 208.224 50 199.691 50C191.291 50 184.624 53.6667 179.691 61C174.891 68.3333 172.491 79.6667 172.491 95C172.491 110.333 174.891 121.667 179.691 129C184.624 136.333 191.291 140 199.691 140ZM403.633 135.6H380.833V165H349.233V135.6H273.833V113.8L339.833 25H373.833L312.633 109.2H350.233V83H380.833V109.2H403.633V135.6Z" fill="#48ACB0" fill-opacity="0.8"/>
<path d="M309.014 149.824C309.306 149.472 309.517 149.061 309.633 148.619C309.749 148.176 309.767 147.714 309.684 147.264C309.602 146.814 309.423 146.388 309.158 146.015C308.893 145.642 308.55 145.332 308.152 145.106L310.17 134.175L304.85 136.427L303.75 146.462C303.415 147.155 303.346 147.947 303.556 148.688C303.765 149.429 304.24 150.067 304.888 150.481C305.537 150.895 306.316 151.058 307.076 150.936C307.836 150.815 308.526 150.42 309.014 149.824V149.824Z" fill="#FFB6B6"/>
<path d="M312.26 117.472L310.569 111.789L298.649 93.1895C297.986 92.415 297.193 91.7616 296.307 91.2584C294.545 90.2513 292.491 89.8786 290.488 90.2022C288.484 90.5259 286.652 91.5265 285.297 93.0371C283.942 94.5478 283.146 96.4772 283.041 98.5039C282.936 100.531 283.529 102.532 284.72 104.175C284.966 104.518 285.237 104.842 285.532 105.143L300.971 121.067L301.85 121.975L303.239 125.49L303.787 141.517L304.278 141.634L308.605 142.653L309.21 142.796L310.222 137.561L310.857 135.059C311.397 132.924 311.669 130.732 311.669 128.53C311.669 127.852 311.645 127.17 311.592 126.492L312.26 117.472Z" fill="#00696E"/>
<path d="M295.873 227.987H291.733L289.764 212.021L295.873 212.021L295.873 227.987Z" fill="#FFB6B6"/>
<path d="M295.763 226.634L291.346 224.84L291.216 224.787L288.777 226.634C287.438 226.634 286.152 227.151 285.185 228.076C284.218 229.002 283.646 230.265 283.588 231.602C283.582 231.676 283.582 231.753 283.582 231.829V232H296.929V226.634H295.763Z" fill="#36354A"/>
<path d="M287.99 219.73L284.422 221.829L274.627 209.067L279.893 205.969L287.99 219.73Z" fill="#FFB6B6"/>
<path d="M290.454 221.834L289.969 221.008L288.215 218.028L287.303 218.566L287.21 218.62L282.492 219.315L282.352 219.335L281.189 222.164C280.601 222.51 280.087 222.969 279.676 223.513C279.265 224.058 278.965 224.678 278.794 225.339C278.622 225.999 278.583 226.687 278.678 227.363C278.772 228.039 278.999 228.689 279.345 229.277L279.432 229.421L290.935 222.652L290.454 221.834Z" fill="#36354A"/>
<path d="M301.115 130.377C303.056 136.231 302.851 142.584 300.649 149.403L300.074 172.845L298.228 187.632C299.341 190.529 299.913 193.607 299.913 196.71C299.905 204.846 299.358 216.405 296.584 221.834H290.021L288.539 197.655L286.771 185.498L286.553 172.47L286.363 161.108L279.227 171.544L272.292 181.685L279.185 193.311L285.198 212.021L278.851 217.366L271.649 203.714L268.159 199.659L258.632 179.035L259.489 176.164C261.252 170.25 263.813 164.604 267.1 159.382V159.382L276.576 137.388L301.115 130.377Z" fill="#C8D7D7"/>
<path d="M301.957 128.423L300.874 126.258L300.971 121.067L301.295 103.513C301.334 101.239 300.912 98.9815 300.055 96.8754C299.198 94.7692 297.923 92.8585 296.307 91.2584C295.348 90.303 294.276 89.4693 293.113 88.7761L290.788 87.3862L289.612 84.3994L278.767 84.6634L278.744 87.56L278.734 88.579L274.848 94.7731L274.851 94.7999L274.931 106.072L275.092 128.51L276.164 131.988L274.544 136.037L275.406 138.617L276.094 138.506L299.274 134.801C300.327 134.463 301.222 133.753 301.79 132.803C301.904 132.618 302.003 132.423 302.087 132.222C302.34 131.617 302.459 130.964 302.436 130.308C302.414 129.653 302.25 129.01 301.957 128.423Z" fill="#00696E"/>
<path d="M283.195 80.684C288.637 80.684 293.049 76.272 293.049 70.8296C293.049 65.3871 288.637 60.9751 283.195 60.9751C277.752 60.9751 273.34 65.3871 273.34 70.8296C273.34 76.272 277.752 80.684 283.195 80.684Z" fill="#FFB6B6"/>
<path d="M289.325 78.9951C290.366 78.2628 291.42 76.8687 292.122 75.8251C293.053 74.4531 293.684 72.901 293.977 71.2693C294.269 69.6375 294.215 67.9626 293.818 66.353C293.69 65.709 293.389 65.1122 292.946 64.627C292.72 64.3901 292.425 64.2309 292.103 64.172C291.781 64.1132 291.448 64.1578 291.153 64.2995C291.302 63.8834 291.364 63.4412 291.335 63.0003C291.306 62.5593 291.188 62.1289 290.986 61.7356C290.577 60.9504 289.991 60.2713 289.273 59.7522C287.901 58.7256 286.277 58.0896 284.573 57.9116C282.868 57.7337 281.148 58.0206 279.593 58.7417C278.982 59.0354 279.962 56.8187 279.321 57.0401C278.684 57.2967 277.972 57.2941 277.338 57.0326C276.728 56.736 274.744 58.576 274.968 57.9354C274.511 58.1506 274.116 58.4778 273.82 58.8868C273.523 59.2957 273.335 59.773 273.273 60.2742C273.211 60.7754 273.276 61.2842 273.463 61.7532C273.651 62.2222 273.954 62.6362 274.344 62.9566C274.859 63.3788 275.497 63.6172 276.059 63.974C277.044 64.6468 277.749 65.657 278.04 66.8139C278.331 67.9708 278.188 69.1942 277.639 70.2532C278.22 69.8687 278.859 69.5805 279.531 69.3997C279.869 69.3123 280.222 69.3069 280.562 69.3837C280.902 69.4605 281.219 69.6174 281.486 69.8413C281.71 70.0907 281.881 70.3832 281.988 70.701C282.095 71.0188 282.135 71.355 282.108 71.6891C282.095 72.3581 281.945 73.0191 281.936 73.6881C281.911 75.6513 280.912 79.3968 282.448 80.4188C283.66 81.2254 287.904 79.995 289.325 78.9951Z" fill="#36354A"/>
<path d="M228.45 94.7988C228.683 95.1922 229 95.5297 229.377 95.7875C229.755 96.0453 230.185 96.2171 230.636 96.2909C231.087 96.3647 231.549 96.3387 231.989 96.2146C232.43 96.0905 232.837 95.8715 233.183 95.5729L242.801 101.146L242.467 95.3797L233.386 90.9712C232.845 90.4226 232.123 90.0913 231.355 90.04C230.586 89.9886 229.826 90.2209 229.218 90.6927C228.609 91.1645 228.195 91.8431 228.054 92.5999C227.912 93.3567 228.053 94.1391 228.45 94.7988V94.7988Z" fill="#FFB6B6"/>
<path d="M290.557 93.0723C290.184 91.9062 289.574 90.8299 288.765 89.9109C287.956 88.992 286.965 88.2503 285.856 87.7326C284.746 87.2149 283.542 86.9323 282.318 86.9025C281.094 86.8728 279.877 87.0965 278.743 87.5597C278.637 87.6032 278.53 87.65 278.423 87.6967L257.087 97.4089L248.782 96.4233L238.03 92.6681L237.756 93.0924L235.341 96.8243L235.003 97.3455L246.536 104.164L247.759 104.418C248.824 104.639 249.835 105.067 250.734 105.679C251.633 106.29 252.402 107.073 252.998 107.983L257.468 109.453L274.931 106.072L284.72 104.174L285.275 104.067C286.952 103.422 288.395 102.283 289.413 100.802C290.431 99.3208 290.977 97.5659 290.978 95.7685C290.979 94.8534 290.837 93.9438 290.557 93.0723V93.0723Z" fill="#00696E"/>
<path d="M136.615 198.2V215H133.423L125.047 204.8V215H121.207V198.2H124.423L132.775 208.4V198.2H136.615ZM148.726 215.288C146.982 215.288 145.406 214.912 143.998 214.16C142.606 213.408 141.51 212.376 140.71 211.064C139.926 209.736 139.534 208.248 139.534 206.6C139.534 204.952 139.926 203.472 140.71 202.16C141.51 200.832 142.606 199.792 143.998 199.04C145.406 198.288 146.982 197.912 148.726 197.912C150.47 197.912 152.038 198.288 153.43 199.04C154.822 199.792 155.918 200.832 156.718 202.16C157.518 203.472 157.918 204.952 157.918 206.6C157.918 208.248 157.518 209.736 156.718 211.064C155.918 212.376 154.822 213.408 153.43 214.16C152.038 214.912 150.47 215.288 148.726 215.288ZM148.726 211.976C149.718 211.976 150.614 211.752 151.414 211.304C152.214 210.84 152.838 210.2 153.286 209.384C153.75 208.568 153.982 207.64 153.982 206.6C153.982 205.56 153.75 204.632 153.286 203.816C152.838 203 152.214 202.368 151.414 201.92C150.614 201.456 149.718 201.224 148.726 201.224C147.734 201.224 146.838 201.456 146.038 201.92C145.238 202.368 144.606 203 144.142 203.816C143.694 204.632 143.47 205.56 143.47 206.6C143.47 207.64 143.694 208.568 144.142 209.384C144.606 210.2 145.238 210.84 146.038 211.304C146.838 211.752 147.734 211.976 148.726 211.976ZM164.085 201.368H158.709V198.2H173.349V201.368H167.973V215H164.085V201.368ZM186.126 201.32V205.76H193.902V208.88H186.126V215H182.238V198.2H194.934V201.32H186.126ZM205.538 215.288C203.794 215.288 202.218 214.912 200.81 214.16C199.418 213.408 198.322 212.376 197.522 211.064C196.738 209.736 196.346 208.248 196.346 206.6C196.346 204.952 196.738 203.472 197.522 202.16C198.322 200.832 199.418 199.792 200.81 199.04C202.218 198.288 203.794 197.912 205.538 197.912C207.282 197.912 208.85 198.288 210.242 199.04C211.634 199.792 212.73 200.832 213.53 202.16C214.33 203.472 214.73 204.952 214.73 206.6C214.73 208.248 214.33 209.736 213.53 211.064C212.73 212.376 211.634 213.408 210.242 214.16C208.85 214.912 207.282 215.288 205.538 215.288ZM205.538 211.976C206.53 211.976 207.426 211.752 208.226 211.304C209.026 210.84 209.65 210.2 210.098 209.384C210.562 208.568 210.794 207.64 210.794 206.6C210.794 205.56 210.562 204.632 210.098 203.816C209.65 203 209.026 202.368 208.226 201.92C207.426 201.456 206.53 201.224 205.538 201.224C204.546 201.224 203.65 201.456 202.85 201.92C202.05 202.368 201.418 203 200.954 203.816C200.506 204.632 200.282 205.56 200.282 206.6C200.282 207.64 200.506 208.568 200.954 209.384C201.418 210.2 202.05 210.84 202.85 211.304C203.65 211.752 204.546 211.976 205.538 211.976ZM225.116 215.288C222.716 215.288 220.844 214.624 219.5 213.296C218.172 211.968 217.508 210.072 217.508 207.608V198.2H221.396V207.464C221.396 210.472 222.644 211.976 225.14 211.976C226.356 211.976 227.284 211.616 227.924 210.896C228.564 210.16 228.884 209.016 228.884 207.464V198.2H232.724V207.608C232.724 210.072 232.052 211.968 230.708 213.296C229.38 214.624 227.516 215.288 225.116 215.288ZM251.974 198.2V215H248.782L240.406 204.8V215H236.566V198.2H239.782L248.134 208.4V198.2H251.974ZM255.949 198.2H263.581C265.405 198.2 267.013 198.552 268.405 199.256C269.813 199.944 270.901 200.92 271.669 202.184C272.453 203.448 272.845 204.92 272.845 206.6C272.845 208.28 272.453 209.752 271.669 211.016C270.901 212.28 269.813 213.264 268.405 213.968C267.013 214.656 265.405 215 263.581 215H255.949V198.2ZM263.389 211.808C265.069 211.808 266.405 211.344 267.397 210.416C268.405 209.472 268.909 208.2 268.909 206.6C268.909 205 268.405 203.736 267.397 202.808C266.405 201.864 265.069 201.392 263.389 201.392H259.837V211.808H263.389Z" fill="black"/>
</g>
<defs>
<clipPath id="clip0_300_2">
<rect width="392" height="232" fill="white"/>
</clipPath>
</defs>
</svg>
