<svg width="348" height="278" viewBox="0 0 348 278" fill="none" xmlns="http://www.w3.org/2000/svg">
<path opacity="0.45" d="M180.617 278C269.219 278 341.045 272.777 341.045 266.335C341.045 259.892 269.219 254.669 180.617 254.669C92.0151 254.669 20.189 259.892 20.189 266.335C20.189 272.777 92.0151 278 180.617 278Z" fill="#CFCFCF"/>
<path d="M188.802 17.2559L187.27 50.4159C182.807 58.7059 181.514 60.0796 179.923 60.3757V70.3C183.86 71.2475 187.354 71.4843 189.412 70.3C196.593 66.0366 201.547 44.376 201.547 44.376L188.802 17.2559Z" fill="#00696E"/>
<path d="M315.531 53.4551L51.387 54.0939L51.856 244.041L316 243.402L315.531 53.4551Z" fill="#AED6D1"/>
<path d="M315.615 53.7675H51.3743V91.1672H315.615V53.7675Z" fill="#E3EEEE"/>
<path d="M75.081 77.7963C77.7246 77.7963 79.8677 75.6754 79.8677 73.0592C79.8677 70.4429 77.7246 68.322 75.081 68.322C72.4373 68.322 70.2942 70.4429 70.2942 73.0592C70.2942 75.6754 72.4373 77.7963 75.081 77.7963Z" fill="#24285B"/>
<path d="M89.3217 77.7609C91.9653 77.7609 94.1084 75.64 94.1084 73.0238C94.1084 70.4075 91.9653 68.2866 89.3217 68.2866C86.678 68.2866 84.5349 70.4075 84.5349 73.0238C84.5349 75.64 86.678 77.7609 89.3217 77.7609Z" fill="#00696E"/>
<path d="M102.736 77.7253C105.38 77.7253 107.523 75.6044 107.523 72.9881C107.523 70.3719 105.38 68.251 102.736 68.251C100.092 68.251 97.9492 70.3719 97.9492 72.9881C97.9492 75.6044 100.092 77.7253 102.736 77.7253Z" fill="#43A5AA"/>
<path d="M285.375 181.279H172.132V188.255H285.375V181.279Z" fill="#E3EEEE"/>
<path d="M285.375 199.754H172.132V206.73H285.375V199.754Z" fill="#E3EEEE"/>
<path d="M250.814 218.229H172.132V225.205H250.814V218.229Z" fill="#E3EEEE"/>
<path d="M282.443 104.396H172.132V169.768H282.443V104.396Z" fill="#E3EEEE"/>
<path opacity="0.17" d="M159.435 103.803H75.272V127.299H159.435V103.803Z" fill="black"/>
<path d="M159.435 137.082H75.272V160.578H159.435V137.082Z" fill="#E3EEEE"/>
<path opacity="0.17" d="M89.9313 157.392C94.6502 157.392 98.4757 153.606 98.4757 148.936C98.4757 144.266 94.6502 140.481 89.9313 140.481C85.2124 140.481 81.387 144.266 81.387 148.936C81.387 153.606 85.2124 157.392 89.9313 157.392Z" fill="#666666"/>
<path opacity="0.17" d="M138.864 143.678H104.914V147.397H138.864V143.678Z" fill="#666666"/>
<path opacity="0.17" d="M126.191 151.116H104.914V154.834H126.191V151.116Z" fill="#666666"/>
<path d="M159.435 170.372H75.272V193.868H159.435V170.372Z" fill="#E3EEEE"/>
<path opacity="0.17" d="M89.9313 190.683C94.6502 190.683 98.4757 186.897 98.4757 182.227C98.4757 177.557 94.6502 173.771 89.9313 173.771C85.2124 173.771 81.387 177.557 81.387 182.227C81.387 186.897 85.2124 190.683 89.9313 190.683Z" fill="#666666"/>
<path opacity="0.17" d="M138.864 176.957H104.914V180.675H138.864V176.957Z" fill="#666666"/>
<path opacity="0.17" d="M126.191 184.406H104.914V188.125H126.191V184.406Z" fill="#666666"/>
<path d="M159.435 203.65H75.272V227.147H159.435V203.65Z" fill="#E3EEEE"/>
<path opacity="0.17" d="M89.9313 223.961C94.6502 223.961 98.4757 220.175 98.4757 215.505C98.4757 210.835 94.6502 207.05 89.9313 207.05C85.2124 207.05 81.387 210.835 81.387 215.505C81.387 220.175 85.2124 223.961 89.9313 223.961Z" fill="#666666"/>
<path opacity="0.17" d="M138.864 210.247H104.914V213.966H138.864V210.247Z" fill="#666666"/>
<path opacity="0.17" d="M126.191 217.684H104.914V221.403H126.191V217.684Z" fill="#666666"/>
<path opacity="0.08" d="M79.8675 243.964C80.2743 243.964 70.5333 191.606 73.7763 184.406C77.0193 177.205 84.726 170.195 84.5465 164.403C84.367 158.612 107.128 141.511 112.07 127.3L116.498 134.228L162.63 95.6674C162.63 95.6674 170.493 94.5542 173.054 88.9051C175.615 83.2561 199.584 53.72 199.584 53.72H186.756L172.276 72.4317L162.463 68.3222L110.06 107.404L107.056 118.891C107.056 118.891 69.5759 145.502 57.2022 159.56C44.8284 173.617 61.3307 243.952 61.3307 243.952L79.8675 243.964Z" fill="black"/>
<path d="M159.992 59.7683L103.512 106.075L117.299 122.545L173.78 76.2387L159.992 59.7683Z" fill="#24285B"/>
<path d="M120.746 113.669C125.042 113.669 128.525 110.222 128.525 105.971C128.525 101.719 125.042 98.2729 120.746 98.2729C116.45 98.2729 112.968 101.719 112.968 105.971C112.968 110.222 116.45 113.669 120.746 113.669Z" fill="#43A5AA"/>
<path opacity="0.17" d="M151.958 74.1418L128.164 93.6495L130.347 96.2578L154.141 76.75L151.958 74.1418Z" fill="white"/>
<path opacity="0.17" d="M147.439 86.6401L132.528 98.8645L134.712 101.473L149.622 89.2483L147.439 86.6401Z" fill="white"/>
<path d="M37.6604 201.933L29.846 226.626C28.7955 229.972 27.0573 233.067 24.7406 235.716C22.4238 238.365 19.5784 240.512 16.3832 242.021L4.89502 247.422L5.36173 250.785L22.5223 247.114C26.5651 245.937 30.3145 243.936 33.5295 241.24C36.7446 238.543 39.3541 235.211 41.1906 231.458L53.3131 206.753L37.6604 201.933Z" fill="#F4A28C"/>
<path d="M63.5567 208.897L67.2186 261.858L63.808 263.031L50.2256 213.492L63.5567 208.897Z" fill="#F4A28C"/>
<path d="M67.9247 262.77C67.9247 262.77 68.7146 265.908 71.1079 266.891C73.5013 267.874 72.3046 271.285 68.7146 269.201C67.5971 268.56 66.5362 267.827 65.5433 267.01C64.61 266.283 63.4997 265.814 62.3243 265.648C62.1053 265.591 61.907 265.475 61.7524 265.311C61.5977 265.148 61.4931 264.944 61.4507 264.724C60.972 262.995 64.945 261.361 64.945 261.361L67.9247 262.77Z" fill="#00696E"/>
<path d="M5.3615 250.75C5.3615 250.75 2.96812 252.573 2.96812 254.966C2.96812 257.358 -0.382609 257.654 0.0362319 253.781C0.16299 252.581 0.387092 251.393 0.706375 250.229C0.979975 249.161 0.959314 248.041 0.646541 246.984C0.601776 246.777 0.622565 246.561 0.706074 246.366C0.789582 246.171 0.931754 246.006 1.11325 245.894C2.41764 244.828 5.3615 247.552 5.3615 247.552V250.75Z" fill="#00696E"/>
<path d="M43.0691 132.143L44.3495 137.236L40.1731 139.415L39.4431 130.698L43.0691 132.143Z" fill="#F4A28C"/>
<path d="M38.4618 125.796C38.7073 125.339 39.0644 124.95 39.5006 124.665C39.9367 124.379 40.4381 124.206 40.959 124.162C41.48 124.117 42.0039 124.202 42.4832 124.409C42.9625 124.615 43.382 124.938 43.7033 125.346C45.247 127.264 47.054 130.261 44.6248 131.622C40.9031 133.707 38.031 129.041 38.031 129.041C37.845 127.941 37.995 126.811 38.4618 125.796Z" fill="#F4A28C"/>
<path d="M21.3255 148.12C21.3255 148.12 3.37513 175.915 6.9652 180.012C18.3816 193.039 43.7275 163.74 43.7275 163.74L21.3255 148.12Z" fill="#F4A28C"/>
<path d="M61.9651 143.962C56.8092 140.238 50.6173 138.178 44.2348 138.066C37.8522 137.954 31.5902 139.794 26.3038 143.335C21.6008 146.497 17.9269 151.234 19.6382 158.079C23.5274 174.15 35.973 184.737 36.3919 198.878L65.8424 196.924V178.721C65.8356 177.001 66.1894 175.299 66.8815 173.721C67.5736 172.143 68.5889 170.724 69.8633 169.555C72.4242 167.186 74.9851 163.385 73.2379 158.15C71.6463 153.484 67.6255 148.072 61.9651 143.962Z" fill="#00696E"/>
<path d="M40.7958 129.041C40.7958 129.041 39.9581 128.224 39.4555 129.254C38.9529 130.284 40.5205 130.924 41.0351 130.438C41.5497 129.953 40.7958 129.041 40.7958 129.041Z" fill="#F4A28C"/>
<path opacity="0.08" d="M47.3893 151.542C47.3893 151.542 41.0229 163.574 48.4065 175.311C55.7901 187.047 41.8008 198.511 41.8008 198.511L65.8064 196.924V186.549L47.3893 151.542Z" fill="black"/>
<path d="M35.123 144.33C35.6854 142.151 38.3062 138.195 34.6204 131.066C34.0705 129.889 33.7917 128.606 33.8041 127.309C33.8165 126.013 34.1199 124.735 34.6922 123.569C38.1985 117.719 43.8469 119.72 43.1767 123.001C42.5066 126.281 41.98 127.844 41.98 127.844C41.98 127.844 52.6784 135.436 51.1108 141.026C49.7824 146 32.7416 153.401 35.123 144.33Z" fill="#24285B"/>
<path d="M35.0634 191.441H65.8063L70.7008 233.542L25.095 231.505L35.0634 191.441Z" fill="#24285B"/>
<path d="M45.0917 158.932C44.6262 157.898 44.3727 156.783 44.3461 155.651C44.3194 154.52 44.5201 153.394 44.9365 152.34C45.3528 151.285 45.9765 150.323 46.7715 149.509C47.5664 148.696 48.5167 148.046 49.5673 147.598C51.6541 146.747 53.8022 146.05 55.9935 145.514C69.0853 142.198 91.8224 133.186 105.177 115.824C105.177 115.824 109.031 109.18 114.452 110.945C119.873 112.709 116.103 118.95 110.646 117.387C110.646 117.387 94.3355 158.529 57.0466 165.303C54.619 165.722 52.1198 165.321 49.9498 164.166C47.7798 163.01 46.0648 161.167 45.0797 158.932H45.0917Z" fill="#F4A28C"/>
<path d="M175.471 6.65649L190.358 12.5542L190.178 23.426L177.206 12.9806L175.471 6.65649Z" fill="#F4A28C"/>
<path opacity="0.31" d="M179.169 14.6977C179.494 13.6239 179.494 12.4792 179.169 11.4054C180.97 12.8566 182.146 14.931 182.46 17.2084L179.169 14.6977Z" fill="#CE8172"/>
<path d="M170.696 12.0566C172.664 13.9222 174.878 15.5157 177.278 16.7938C177.569 16.9357 177.886 17.0176 178.21 17.0346C178.534 17.0515 178.858 17.0032 179.162 16.8924C179.466 16.7817 179.745 16.6108 179.981 16.3903C180.216 16.1697 180.404 15.9041 180.533 15.6095C181.021 14.6952 181.231 13.6607 181.137 12.6309C181.044 11.6011 180.651 10.6201 180.006 9.8065L177.613 6.02863C177.051 5.32104 176.279 4.8049 175.406 4.55225C174.533 4.2996 173.602 4.32305 172.743 4.61933C169.428 5.46018 168.434 10.1144 170.696 12.0566Z" fill="#F4A28C"/>
<path d="M173.03 14.0463L173.652 16.2609C173.687 16.387 173.754 16.5023 173.846 16.5963C173.938 16.6903 174.052 16.76 174.179 16.7989C174.305 16.8378 174.439 16.8447 174.569 16.819C174.698 16.7932 174.819 16.7357 174.921 16.6517L176.357 15.4674L173.03 14.0463Z" fill="#F4A28C"/>
<path d="M181.777 8.77635L177.23 3.97999C177.23 3.97999 178.666 0.533715 176.033 0.190272C173.4 -0.153171 173.963 1.94302 171.582 0.533716C169.2 -0.875585 167.513 0.711359 167.991 2.90229C168.47 5.09322 167.01 3.2931 165.706 4.80899C164.401 6.32487 164.856 7.24862 166.125 8.08946C167.393 8.9303 164.485 10.458 165.718 12.116C166.95 13.774 168.47 14.828 171.378 10.8133C174.286 6.79859 175.83 11.9147 181.777 8.77635Z" fill="#43A5AA"/>
<path d="M177.218 10.6237C177.218 10.6237 175.77 9.43937 176.764 8.43272C177.757 7.42608 179.863 9.1433 178.858 10.8013L177.218 10.6237Z" fill="#F4A28C"/>
<path opacity="0.08" d="M229.274 56.4557C229.274 56.4557 222.968 72.6567 230.124 80.7928C237.28 88.9288 253.268 96.7925 253.268 96.7925C253.268 96.7925 255.314 106.267 260.376 97.657L259.395 92.9909L244.425 81.7165L234.851 69.7434L241.026 56.7162L229.274 56.4557Z" fill="black"/>
<path d="M249.785 36.2754L241.038 47.3603L235.186 54.9042C231.785 55.4107 228.343 55.597 224.906 55.4609C214.758 55.1056 199.847 51.908 193.349 37.5544C191.424 33.0909 190.352 28.3122 190.19 23.4614L190.358 12.6015C190.358 12.6015 206.752 0.758673 221.472 10.6356C236.191 20.5126 249.785 36.2754 249.785 36.2754Z" fill="#00696E"/>
<path d="M249.785 36.2754C249.785 36.2754 266.168 47.0998 257.384 54.5489C252.918 58.4874 248.854 62.8507 245.25 67.5761C244.339 68.7456 243.887 70.202 243.977 71.6759C244.067 73.1497 244.694 74.5415 245.741 75.5937L257.923 87.8747L255.805 93.5001L237.854 82.2375C235.028 80.4588 232.885 77.7932 231.77 74.6671C230.655 71.541 230.631 68.1352 231.703 64.9943L235.186 54.9042L249.785 36.2754Z" fill="#24285B"/>
<path opacity="0.08" d="M241.037 47.3604L235.186 54.9043C235.186 54.9043 230.913 55.1885 224.906 55.4609C214.758 55.1056 199.847 51.908 193.349 37.5545C198.615 30.4488 205.544 23.7457 208.799 23.0115C208.799 23.0115 214.902 40.0533 224.02 42.8838C232.924 45.655 240.702 47.3249 241.073 47.4078L241.037 47.3604Z" fill="black"/>
<path d="M209.325 26.0195C210.522 16.0478 197.514 11.0265 191.279 18.9138C189.422 21.2536 188.033 23.9225 187.187 26.7775C184.003 37.436 164.15 80.852 164.15 80.852L170.888 84.1087C170.888 84.1087 196.126 52.891 205.951 35.707C207.713 32.7307 208.86 29.4379 209.325 26.0195V26.0195Z" fill="#00696E"/>
<path opacity="0.36" d="M209.325 26.0195C210.522 16.0478 197.514 11.0265 191.279 18.9138C189.422 21.2536 188.033 23.9225 187.187 26.7775C184.003 37.436 164.15 80.852 164.15 80.852L170.888 84.1087C170.888 84.1087 196.126 52.891 205.951 35.707C207.713 32.7307 208.86 29.4379 209.325 26.0195V26.0195Z" fill="white"/>
<path d="M165.215 81.3849C165.215 81.3849 157.784 85.5299 161.96 88.2656C166.137 91.0013 170.84 84.1087 170.84 84.1087L165.215 81.3849Z" fill="#F4A28C"/>
<path d="M256.308 92.1028C256.308 92.1028 259.766 95.6556 258.545 97.9531C258.545 97.9531 260.939 100.476 262.806 97.1597C264.672 93.8437 261.417 90.0539 261.417 90.0539L257.552 88.7512L256.308 92.1028Z" fill="#00696E"/>
<path opacity="0.08" d="M287.385 210.436C284.992 216.579 282.834 222.8 280.911 229.101C280.528 230.356 278.888 238.101 277.512 243.229H293.464C294.53 231.291 298.834 219.859 305.922 210.14C306.077 221.581 306.508 233.826 313.03 243.229H320.318C321.812 241.477 322.7 239.299 322.855 237.012C322.937 233.876 322.562 230.745 321.742 227.715C319.767 218.29 318.749 208.693 318.702 199.067C318.702 186.952 320.126 174.813 319.073 162.733C318.439 155.569 316.68 147.942 311.139 143.216C310.907 143.011 310.659 142.825 310.397 142.66C310.948 138.396 311.223 134.086 311.474 129.81L312.24 117.352C312.503 113.124 310.098 106.243 305.168 110.992C301.147 114.853 302.547 119.282 301.578 123.889C300.046 131.089 291.035 130.154 285.351 129.905C267.4 129.112 249.258 129.562 231.236 129.562H188.885V207.097H288.773C288.294 208.21 287.816 209.323 287.385 210.436Z" fill="black"/>
<path d="M283.209 259.276C283.209 259.276 280.565 261.858 277.705 260.638C274.844 259.419 272.762 261.823 274.868 263.872C276.975 265.92 284.945 265.991 284.945 265.991L287.278 260.65L283.209 259.276Z" fill="#00696E"/>
<path d="M327.618 258.08C327.618 258.08 328.911 261.633 326.756 263.907C324.602 266.181 325.943 269.118 328.552 267.862C331.16 266.607 334.236 258.933 334.236 258.933L330.37 254.669L327.618 258.08Z" fill="#00696E"/>
<path d="M334.69 191.962C334.69 191.962 337.478 203.449 332.632 209.098C327.785 214.747 320.366 241.512 332.632 254.895L327.785 259.632C327.785 259.632 306.544 248.334 312.599 207.594L297.425 191.95L334.69 191.962Z" fill="#24285B"/>
<path d="M297.426 191.961L281.869 259.643L289.659 260.828C289.659 260.828 305.216 214.439 315.52 204.918L297.426 191.961Z" fill="#24285B"/>
<path d="M293.811 132.451C293.811 132.451 277.56 139.308 280.05 164.427L295.918 163.089L293.811 132.451Z" fill="#00696E"/>
<path opacity="0.36" d="M293.811 132.451C293.811 132.451 277.56 139.308 280.05 164.427L295.918 163.089L293.811 132.451Z" fill="white"/>
<path d="M316.632 113.645L316.01 129.964L306.951 128.981L311.032 117.506L316.632 113.645Z" fill="#F4A28C"/>
<path opacity="0.31" d="M310.039 120.04C311.21 119.967 312.334 119.555 313.27 118.856C312.468 121.084 310.843 122.929 308.723 124.019L310.039 120.04Z" fill="#CE8172"/>
<path d="M315.232 126.66L309.943 127.75C309.943 127.75 285.722 130.331 284.741 143.856C283.759 157.381 297.437 191.962 297.437 191.962H334.14C334.14 191.962 363.519 123.084 315.232 126.66Z" fill="#00696E"/>
<path d="M307.693 111.252C307.068 113.97 306.819 116.759 306.951 119.542C307.027 120.203 307.364 120.808 307.889 121.223C308.414 121.638 309.084 121.83 309.752 121.757C310.829 121.697 311.865 121.329 312.736 120.699C313.606 120.068 314.274 119.202 314.658 118.204L316.752 114.095C317.084 113.229 317.136 112.282 316.903 111.385C316.669 110.488 316.161 109.685 315.448 109.085C312.911 106.681 308.22 108.256 307.693 111.252Z" fill="#F4A28C"/>
<path opacity="0.09" d="M326.002 132.961C326.002 132.961 313.497 140.173 316.429 156.504C319.361 172.835 324.183 178.449 313.832 176.175C303.481 173.901 299.22 168.75 299.22 168.75C299.22 168.75 291.765 174.766 299.22 179.325C306.676 183.885 316.788 183.885 318.367 191.962H334.116C334.116 191.962 335.384 188.409 337.072 183.968C338.759 179.527 326.002 132.961 326.002 132.961Z" fill="black"/>
<path d="M308.902 111.632C310.433 111.904 311.991 111.999 313.545 111.916C313.007 112.525 312.66 113.277 312.548 114.078C312.435 114.88 312.561 115.696 312.911 116.428C313.237 117.143 313.805 117.724 314.517 118.07C315.229 118.416 316.041 118.505 316.812 118.323L317.626 111.975C317.775 111.07 317.672 110.142 317.328 109.291C316.985 108.44 316.413 107.697 315.675 107.143C315.041 106.658 314.377 106.211 313.689 105.805C312.717 105.269 311.615 105.006 310.504 105.046C309.392 105.086 308.312 105.426 307.382 106.03C306.687 106.616 306.254 107.449 306.175 108.349C306.097 109.249 306.38 110.143 306.963 110.838C307.515 111.288 308.19 111.564 308.902 111.632V111.632Z" fill="#24285B"/>
<path d="M312.396 116.215C312.396 116.215 312.707 114.308 314.131 114.663C315.555 115.019 315.125 117.743 313.126 117.731L312.396 116.215Z" fill="#F4A28C"/>
<path d="M302.368 122.03H195.922V199.174H302.368V122.03Z" fill="#43A5AA"/>
<path opacity="0.43" d="M293.584 129.218H204.718V191.985H293.584V129.218Z" fill="white"/>
<path opacity="0.49" d="M205.735 191.985L229.92 147.729L250.456 182.049L268.932 160.602L293.572 191.985H205.735Z" fill="white"/>
<path d="M252.107 156.196C256.046 156.196 259.239 153.036 259.239 149.138C259.239 145.24 256.046 142.08 252.107 142.08C248.168 142.08 244.975 145.24 244.975 149.138C244.975 153.036 248.168 156.196 252.107 156.196Z" fill="white"/>
<path d="M345.413 161.822C345.413 161.822 347.483 182.795 337.036 183.968C329.186 184.844 316.597 180.415 308.902 178.295C305.575 177.348 303.96 176.91 301.399 174.6C298.335 171.829 294.075 169.863 297.378 167.222C303.254 162.485 307.43 170.55 307.43 170.55C312.336 171.963 317.393 172.798 322.496 173.037C323.454 173.064 324.405 172.869 325.274 172.467C326.142 172.066 326.904 171.469 327.498 170.725C328.092 169.981 328.502 169.109 328.695 168.18C328.888 167.251 328.86 166.291 328.611 165.375L326.673 158.15C326.673 158.15 340.471 145.36 345.413 161.822Z" fill="#F4A28C"/>
<path d="M307.143 114.355L305.491 116.061C305.398 116.158 305.33 116.278 305.295 116.408C305.26 116.538 305.259 116.674 305.291 116.805C305.323 116.936 305.388 117.056 305.479 117.156C305.571 117.256 305.686 117.331 305.814 117.375L307.669 117.991L307.143 114.355Z" fill="#F4A28C"/>
<path d="M334.607 131.326C339.98 135.436 348.153 144.507 347.998 161.656L325.763 163.065C325.763 163.065 319.337 144.235 326.051 132.961C326.467 132.256 327.03 131.647 327.703 131.175C328.377 130.702 329.144 130.378 329.954 130.223C330.764 130.069 331.599 130.087 332.401 130.277C333.203 130.467 333.955 130.825 334.607 131.326V131.326Z" fill="#00696E"/>
<path opacity="0.36" d="M334.607 131.326C339.98 135.436 348.153 144.507 347.998 161.656L325.763 163.065C325.763 163.065 319.337 144.235 326.051 132.961C326.467 132.256 327.03 131.647 327.703 131.175C328.377 130.702 329.144 130.378 329.954 130.223C330.764 130.069 331.599 130.087 332.401 130.277C333.203 130.467 333.955 130.825 334.607 131.326V131.326Z" fill="white"/>
<path d="M115.876 53.7435L149.383 53.7435V48.4971L115.876 48.4971V53.7435Z" fill="#AED6D1"/>
<path d="M115.876 48.4736H141.222V43.2272H115.876V48.4736Z" fill="#E3EEEE"/>
<path opacity="0.58" d="M118.724 42.0191C118.724 42.0191 128.082 39.4847 130.129 30.8513C130.129 30.8513 115.613 27.9498 115.194 42.777L118.724 42.0191Z" fill="#00696E"/>
<path opacity="0.73" d="M117.575 41.0956C117.575 41.0956 124.109 30.8515 118.353 21.2825C118.353 21.2825 107.319 28.2224 112.226 41.1193L117.575 41.0956Z" fill="#00696E"/>
<path d="M115.888 41.1072C115.888 41.1072 112.429 30.2947 101.97 28.2458C101.97 28.2458 100.02 35.2568 108.743 41.1309L115.888 41.1072Z" fill="#00696E"/>
<path d="M122.673 40.8585L120.782 53.7199L108.816 53.7672L107.056 40.9177L122.673 40.8585Z" fill="#24285B"/>
</svg>
