<svg width="32" height="32" viewBox="0 0 32 32" fill="none" xmlns="http://www.w3.org/2000/svg">
<path d="M10 17C12.2091 17 14 15.2091 14 13C14 10.7909 12.2091 9 10 9C7.79086 9 6 10.7909 6 13C6 15.2091 7.79086 17 10 17Z" stroke="#00696E" stroke-width="1.5" stroke-linecap="round" stroke-linejoin="round"/>
<path d="M18 25C18 21.6829 14.4144 19 10 19C5.58556 19 2 21.6829 2 25" stroke="#00696E" stroke-width="1.5" stroke-linecap="round" stroke-linejoin="round"/>
<path d="M29 23C29 19.6829 25.4144 17 21 17C18.612 17 16.4665 17.7851 15 19.031" stroke="#00696E" stroke-width="1.5" stroke-linecap="round" stroke-linejoin="round"/>
<path d="M18.1716 13.8284C17.4214 13.0783 17 12.0609 17 11C17 9.93913 17.4214 8.92172 18.1716 8.17157C18.9217 7.42143 19.9391 7 21 7C22.0609 7 23.0783 7.42143 23.8284 8.17157C24.5786 8.92172 25 9.93913 25 11C25 12.0609 24.5786 13.0783 23.8284 13.8284C23.0783 14.5786 22.0609 15 21 15C19.9391 15 18.9217 14.5786 18.1716 13.8284L18.1716 13.8284Z" stroke="#00696E" stroke-width="1.5" stroke-linecap="round" stroke-linejoin="round"/>
</svg>
