<svg width="32" height="32" viewBox="0 0 32 32" fill="none" xmlns="http://www.w3.org/2000/svg">
<line x1="7.5" y1="9.5" x2="17.5" y2="9.5" stroke="#5793CF" stroke-linecap="round"/>
<line x1="20.5" y1="20.5" x2="24.5" y2="20.5" stroke="#5793CF" stroke-linecap="round"/>
<line x1="18.5" y1="24.5" x2="24.5" y2="24.5" stroke="#5793CF" stroke-linecap="round"/>
<line x1="7.5" y1="13.5" x2="12.5" y2="13.5" stroke="#5793CF" stroke-linecap="round"/>
<path d="M23.5 8V13.1667C23.5 14.8235 22.1569 16.1667 20.5 16.1667C18.2909 16.1667 16.5 17.9575 16.5 20.1667V20.3333C16.5 22.0822 15.0822 23.5 13.3333 23.5H8C4.96243 23.5 2.5 21.0376 2.5 18V8C2.5 4.96243 4.96243 2.5 8 2.5H18C21.0376 2.5 23.5 4.96244 23.5 8Z" stroke="#5793CF"/>
<path d="M23.5 12H24.5C26.9853 12 29 14.0147 29 16.5V25.5C29 27.9853 26.9853 30 24.5 30H16.5C14.0147 30 12 27.9853 12 25.5V23.6757" stroke="#5793CF"/>
</svg>
