<svg width="32" height="32" viewBox="0 0 32 32" fill="none" xmlns="http://www.w3.org/2000/svg">
<path d="M28.6445 8.18666L16.1645 4.02666C16.0577 3.99111 15.9423 3.99111 15.8355 4.02666L3.35553 8.18666C3.3481 8.18913 3.34147 8.19291 3.3342 8.19571C3.3231 8.2 3.31234 8.20456 3.30157 8.20954C3.28303 8.21825 3.26502 8.22803 3.24762 8.23884C3.2389 8.24427 3.22998 8.24925 3.22157 8.25515C3.19964 8.27056 3.17893 8.28764 3.15965 8.30625C3.15701 8.30879 3.15396 8.31085 3.15139 8.31346C3.13006 8.3351 3.11068 8.35858 3.09347 8.38363C3.08817 8.39125 3.08389 8.39947 3.079 8.40737C3.06767 8.42547 3.05748 8.44425 3.04847 8.46361C3.04377 8.4738 3.03961 8.48411 3.03558 8.49462C3.02811 8.51433 3.02186 8.53448 3.01686 8.55495C3.01435 8.56498 3.0115 8.57476 3.00959 8.58501C3.00347 8.61631 3.00026 8.64811 3 8.68V19.08C3 19.2179 3.05479 19.3502 3.1523 19.4477C3.24982 19.5452 3.38209 19.6 3.52 19.6C3.65791 19.6 3.79018 19.5452 3.8877 19.4477C3.98521 19.3502 4.04 19.2179 4.04 19.08V9.40151L9.74378 11.3028C9.0404 12.2472 8.56008 13.3387 8.33884 14.4953C8.11761 15.6519 8.16122 16.8437 8.4664 17.981C8.77158 19.1184 9.3304 20.1718 10.1009 21.0624C10.8715 21.9529 11.8337 22.6573 12.9154 23.1228C10.0582 23.8829 7.5849 25.6764 5.97458 28.1559C5.93717 28.2131 5.9114 28.2771 5.89875 28.3443C5.8861 28.4114 5.88681 28.4804 5.90085 28.5473C5.91489 28.6142 5.94198 28.6777 5.98057 28.7341C6.01916 28.7905 6.06849 28.8388 6.12575 28.8761C6.183 28.9134 6.24705 28.9391 6.31424 28.9516C6.38143 28.9642 6.45043 28.9634 6.5173 28.9492C6.58417 28.9351 6.6476 28.9079 6.70395 28.8693C6.76031 28.8306 6.80849 28.7812 6.84573 28.7239C7.83781 27.1999 9.19467 25.9477 10.7932 25.0808C12.3918 24.214 14.1815 23.76 16 23.76C17.8184 23.76 19.6081 24.214 21.2067 25.0808C22.8053 25.9477 24.1621 27.1999 25.1542 28.7239C25.1915 28.7812 25.2396 28.8306 25.296 28.8693C25.3524 28.9079 25.4158 28.9351 25.4827 28.9492C25.5495 28.9634 25.6185 28.9642 25.6857 28.9516C25.7529 28.9391 25.8169 28.9134 25.8742 28.8761C25.9315 28.8388 25.9808 28.7905 26.0194 28.7341C26.058 28.6777 26.0851 28.6142 26.0991 28.5473C26.1131 28.4804 26.1139 28.4114 26.1012 28.3443C26.0886 28.2771 26.0628 28.2131 26.0254 28.1559C24.4151 25.6764 21.9418 23.8829 19.0846 23.1228C20.1663 22.6573 21.1286 21.9529 21.8991 21.0624C22.6696 20.1718 23.2284 19.1184 23.5336 17.981C23.8388 16.8437 23.8824 15.6519 23.6612 14.4953C23.4399 13.3387 22.9596 12.2472 22.2562 11.3028L28.6445 9.17334C28.748 9.13882 28.838 9.07259 28.9019 8.98405C28.9657 8.89551 29 8.78914 29 8.68C29 8.57086 28.9657 8.46449 28.9019 8.37595C28.838 8.28741 28.748 8.22119 28.6445 8.18666ZM22.76 15.96C22.76 17.0447 22.499 18.1135 21.9991 19.0762C21.4991 20.0388 20.7748 20.867 19.8873 21.4907C18.9999 22.1145 17.9754 22.5156 16.9003 22.66C15.8252 22.8045 14.7312 22.6881 13.7106 22.3208C12.6899 21.9534 11.7727 21.3458 11.0363 20.5493C10.3 19.7528 9.76607 18.7908 9.47975 17.7446C9.19343 16.6983 9.16309 15.5985 9.39129 14.5381C9.6195 13.4776 10.0995 12.4877 10.7909 11.6518L15.8355 13.3333C15.9423 13.3689 16.0577 13.3689 16.1645 13.3333L21.2091 11.6518C22.2129 12.8629 22.7616 14.387 22.76 15.96ZM21.2009 10.5582L21.1992 10.5588L16 12.2918L5.16436 8.68L16 5.06818L26.8356 8.68L21.2009 10.5582Z" fill="#5793CF"/>
</svg>
