<svg width="280" height="200" viewBox="0 0 280 200" fill="none" xmlns="http://www.w3.org/2000/svg">
<g clip-path="url(#clip0_296_2)">
<path d="M18.5583 200H261.428C261.551 200 261.669 199.951 261.756 199.864C261.843 199.777 261.892 199.658 261.892 199.535C261.892 199.412 261.843 199.293 261.756 199.206C261.669 199.119 261.551 199.07 261.428 199.07H18.5583C18.4353 199.07 18.3172 199.119 18.2302 199.206C18.1431 199.293 18.0942 199.412 18.0942 199.535C18.0942 199.658 18.1431 199.777 18.2302 199.864C18.3172 199.951 18.4353 200 18.5583 200V200Z" fill="#CCCCCC"/>
<path d="M65.2205 87.3216C51.0166 73.3086 45.0175 58.6896 48.3279 46.1578C52.5762 30.0758 71.4493 18.9565 100.108 15.651L100.214 16.5735C71.9542 19.8328 53.3689 30.7025 49.2235 46.3953C46.0018 58.5912 51.9138 72.8909 65.8705 86.6602L65.2205 87.3216Z" fill="#202020"/>
<path d="M202.264 137.064C184.537 137.064 165.273 134.423 146.138 129.347C122.476 123.069 100.78 113.593 83.3962 101.943L83.911 101.172C101.211 112.765 122.811 122.198 146.375 128.449C167.67 134.099 189.125 136.717 208.412 136.026L208.445 136.954C206.409 137.027 204.348 137.064 202.264 137.064Z" fill="#202020"/>
<path d="M242.933 131.225L242.636 130.346C258.491 124.974 268.408 116.32 271.314 105.319C275.008 91.3339 266.982 75.1053 248.715 59.6224C230.354 44.0609 203.878 31.1488 174.162 23.265L174.399 22.3674C204.245 30.2859 230.85 43.2649 249.313 58.9137C267.869 74.6409 276 91.2056 272.209 105.556C269.22 116.873 259.096 125.749 242.933 131.225Z" fill="#202020"/>
<path d="M97.3501 137.452C62.5168 121.969 35.6752 101.883 21.77 80.8919L22.5417 80.3783C36.3507 101.224 63.0515 121.191 97.7255 136.603L97.3501 137.452Z" fill="#202020"/>
<path d="M219.821 164.274C216.228 164.274 212.574 164.193 208.858 164.032L208.898 163.105C236.626 164.308 261.092 160.983 279.654 153.486L280 154.347C263.808 160.886 243.17 164.274 219.821 164.274Z" fill="#202020"/>
<path d="M199.61 16.4835C193.853 14.605 187.931 12.8559 182.009 11.2847C147.931 2.24336 114.431 -0.966776 85.1308 2.00311L85.0376 1.07926C114.447 -1.90036 148.061 1.31746 182.246 10.3871C188.185 11.9628 194.124 13.7169 199.897 15.6009L199.61 16.4835Z" fill="#202020"/>
<path d="M43.4505 88.7142C29.2466 74.7012 23.2475 60.0821 26.5579 47.5503C30.8062 31.4684 49.6793 20.3491 78.338 17.0436L78.4438 17.9661C50.1841 21.2254 31.5989 32.0951 27.4535 47.7879C24.2318 59.9838 30.1438 74.2835 44.1005 88.0528L43.4505 88.7142Z" fill="#202020"/>
<path d="M180.495 138.456C162.767 138.456 143.503 135.816 124.369 130.739C100.706 124.461 79.0103 114.986 61.6265 103.336L62.1412 102.564C79.4414 114.158 101.041 123.59 124.606 129.842C145.901 135.492 167.355 138.11 186.642 137.419L186.676 138.346C184.639 138.42 182.578 138.456 180.495 138.456Z" fill="#202020"/>
<path d="M221.163 132.618L220.866 131.738C236.721 126.366 246.638 117.712 249.544 106.711C253.238 92.7264 245.212 76.4979 226.945 61.015C208.584 45.4535 182.108 32.5413 152.392 24.6576L152.629 23.76C182.475 31.6785 209.08 44.6574 227.543 60.3063C246.099 76.0334 254.231 92.5982 250.44 106.949C247.45 118.265 237.326 127.141 221.163 132.618Z" fill="#202020"/>
<path d="M75.58 138.844C40.7468 123.362 13.9052 103.275 0 82.2844L0.77169 81.7708C14.5807 102.616 41.2815 122.584 75.9555 137.995L75.58 138.844Z" fill="#202020"/>
<path d="M198.051 165.666C194.458 165.666 190.804 165.586 187.088 165.425L187.128 164.497C214.856 165.701 239.322 162.375 257.884 154.879L258.23 155.74C242.038 162.278 221.4 165.666 198.051 165.666Z" fill="#202020"/>
<path d="M177.84 17.8761C172.083 15.9975 166.161 14.2484 160.239 12.6773C126.161 3.63595 92.6611 0.425816 63.3608 3.39569L63.2676 2.47184C92.6771 -0.507779 126.291 2.71004 160.476 11.7797C166.415 13.3554 172.353 15.1095 178.127 16.9935L177.84 17.8761Z" fill="#202020"/>
<path d="M15.7897 63.8481C22.4468 56.368 33.0659 51.8092 42.6893 54.5382C33.8113 60.8345 27.4418 70.0749 24.7077 80.6245C23.668 84.6969 22.9347 89.3349 19.5552 91.8248C17.4524 93.3741 14.6662 93.7443 12.0802 93.3914C9.49409 93.0385 7.04887 92.0306 4.63663 91.0319L3.98755 91.0883C5.85372 81.2414 9.13262 71.3281 15.7897 63.8481Z" fill="#F2F2F2"/>
<path d="M42.6599 54.7465C34.6141 56.6988 27.3867 61.1421 22.0042 67.4452C20.8215 68.7815 19.8563 70.2963 19.1442 71.9338C18.502 73.5514 18.3037 75.3119 18.57 77.0323C18.7861 78.6413 19.1931 80.2622 19.0152 81.8959C18.9117 82.7308 18.6333 83.5343 18.1983 84.2538C17.7632 84.9734 17.1812 85.5926 16.4906 86.0709C14.8007 87.3076 12.7682 87.862 10.7617 88.3349C8.53397 88.86 6.21172 89.37 4.39574 90.8537C4.17571 91.0335 3.91023 90.6808 4.12993 90.5014C7.28942 87.9199 11.6804 88.2514 15.1761 86.3764C16.8073 85.5015 18.1852 84.1286 18.5202 82.2448C18.8132 80.5975 18.3949 78.9258 18.162 77.2984C17.8777 75.624 18.0068 73.9052 18.5381 72.2923C19.1647 70.6237 20.0701 69.0742 21.2154 67.71C23.7451 64.5976 26.7473 61.9032 30.1121 59.7255C33.9386 57.2187 38.1648 55.3864 42.6078 54.3078C42.8829 54.2411 42.9331 54.6803 42.6599 54.7465H42.6599Z" fill="black"/>
<path d="M23.6179 65.3133C22.6852 64.2647 22.1549 62.918 22.1215 61.5138C22.0882 60.1095 22.554 58.739 23.4359 57.6472C23.615 57.4269 23.9651 57.6956 23.7856 57.9162C22.9626 58.9314 22.5288 60.208 22.5625 61.5156C22.5962 62.8232 23.0953 64.0757 23.9695 65.0469C24.1592 65.2582 23.8065 65.5234 23.6179 65.3133Z" fill="black"/>
<path d="M18.3533 76.2307C21.2122 76.421 24.0377 75.5244 26.2663 73.7197C26.487 73.5407 26.7525 73.8933 26.5321 74.0721C24.2095 75.9458 21.2673 76.8728 18.2926 76.6682C18.0091 76.6485 18.0713 76.2111 18.3533 76.2307Z" fill="black"/>
<path d="M34.0374 57.7958C34.3139 58.2769 34.7053 58.6816 35.1765 58.9737C35.6476 59.2657 36.1838 59.4359 36.7368 59.4689C37.0204 59.485 36.9579 59.9224 36.6761 59.9065C36.0653 59.8671 35.4734 59.6784 34.9522 59.357C34.4309 59.0355 33.9961 58.591 33.6858 58.0622C33.6524 58.0149 33.6382 57.9565 33.6462 57.899C33.6542 57.8416 33.6837 57.7893 33.7287 57.7528C33.7755 57.7178 33.8341 57.7027 33.8919 57.7107C33.9497 57.7188 34.002 57.7494 34.0374 57.7959L34.0374 57.7958Z" fill="black"/>
<path d="M56.3497 85.59C56.1724 85.585 55.995 85.58 55.8153 85.578C53.4302 85.5232 51.0445 85.6627 48.6819 85.9951C48.4988 86.0179 48.3136 86.0438 48.1316 86.0718C42.448 86.9334 36.9735 88.845 31.9863 91.7095C30.0028 92.8511 28.1089 94.1423 26.3209 95.572C23.8517 97.5465 21.3312 99.8842 18.4405 100.896C18.1401 101.005 17.8332 101.095 17.5217 101.166L4.1064 91.8775C4.08648 91.8411 4.06431 91.8076 4.04424 91.771L3.4917 91.4247C3.57877 91.3445 3.67081 91.2632 3.75789 91.1831C3.80821 91.1363 3.86153 91.0917 3.91182 91.045C3.94631 91.0145 3.98097 90.984 4.01035 90.9546C4.0218 90.9444 4.0334 90.9343 4.04273 90.9271C4.07214 90.8976 4.10254 90.8734 4.1298 90.8469C4.64298 90.3911 5.16025 89.9381 5.68161 89.4879C5.68373 89.4849 5.68373 89.4849 5.68883 89.4839C9.62876 86.0156 13.9653 83.0279 18.6076 80.5835C18.7471 80.5124 18.8886 80.4382 19.0343 80.3714C21.13 79.3176 23.3083 78.4373 25.5472 77.7391C26.7744 77.3608 28.0199 77.045 29.2789 76.7929C32.5333 76.1478 35.8688 76.0197 39.1629 76.4133C45.7297 77.1989 51.9726 80.0805 56.0426 85.1961C56.1466 85.3271 56.2478 85.456 56.3497 85.59Z" fill="#F2F2F2"/>
<path d="M56.2019 85.7399C48.6049 82.4441 40.1649 81.631 32.0805 83.4161C30.3333 83.7694 28.6527 84.3965 27.1003 85.2743C25.6157 86.1784 24.3998 87.4644 23.5789 88.9987C22.7848 90.4138 22.136 91.9536 21.0124 93.1506C20.4282 93.7548 19.7232 94.2284 18.9435 94.5404C18.1639 94.8524 17.3272 94.9957 16.4885 94.9609C14.3962 94.9287 12.4403 94.1449 10.5541 93.3119C8.45991 92.387 6.29933 91.3931 3.95799 91.482C3.6743 91.4928 3.6742 91.051 3.95745 91.0403C8.03097 90.8855 11.3378 93.7995 15.2554 94.4117C17.0834 94.6973 19.0083 94.4326 20.4076 93.1306C21.6311 91.9921 22.3015 90.4049 23.0932 88.965C23.8722 87.4565 25.0078 86.1621 26.401 85.1948C27.9038 84.2406 29.5575 83.5497 31.2916 83.1516C35.1812 82.1928 39.197 81.853 43.192 82.1444C47.7532 82.4517 52.2284 83.5386 56.4239 85.3582C56.6836 85.471 56.4599 85.8519 56.2019 85.7399H56.2019Z" fill="black"/>
<path d="M34.65 82.6875C34.5352 81.2876 34.9208 79.8923 35.7379 78.751C36.5549 77.6096 37.7501 76.7965 39.1102 76.4568C39.3856 76.389 39.5037 76.8147 39.2279 76.8826C37.9608 77.1966 36.8475 77.9541 36.0889 79.0185C35.3302 80.0829 34.9762 81.384 35.0908 82.687C35.1153 82.9702 34.6744 82.9691 34.65 82.6875Z" fill="black"/>
<path d="M23.8873 88.2279C26.0557 90.1049 28.8503 91.0938 31.714 90.9975C31.9977 90.9878 31.9978 91.4295 31.7145 91.4393C28.7343 91.5339 25.8282 90.4988 23.576 88.5407C23.3614 88.3539 23.6739 88.0421 23.8873 88.2279V88.2279Z" fill="black"/>
<path d="M47.4856 82.9723C47.4173 83.5233 47.4867 84.0826 47.6875 84.6C47.8882 85.1175 48.2141 85.5768 48.6357 85.9369C48.8525 86.1208 48.5398 86.4324 48.3244 86.2496C47.8604 85.8496 47.5011 85.3419 47.2781 84.7707C47.055 84.1995 46.9749 83.5822 47.0448 82.9729C47.0466 82.9149 47.0703 82.8597 47.1112 82.8186C47.1521 82.7776 47.207 82.7536 47.2649 82.7517C47.3233 82.7519 47.3792 82.7752 47.4205 82.8165C47.4618 82.8579 47.4852 82.9138 47.4855 82.9723H47.4856Z" fill="black"/>
<path d="M276.637 125.166C272.876 115.879 264.404 108.008 254.425 107.337C260.675 116.258 263.575 127.106 262.612 137.963C262.225 142.148 261.36 146.764 263.708 150.247C265.169 152.414 267.669 153.701 270.223 154.24C272.777 154.779 275.418 154.653 278.025 154.525L278.617 154.797C280.162 144.894 280.398 134.453 276.637 125.166Z" fill="#F2F2F2"/>
<path d="M254.383 107.543C261.306 112.092 266.623 118.711 269.578 126.46C270.244 128.117 270.645 129.869 270.766 131.651C270.829 133.391 270.425 135.116 269.597 136.647C268.854 138.089 267.927 139.479 267.547 141.077C267.364 141.899 267.357 142.749 267.525 143.573C267.694 144.397 268.034 145.177 268.524 145.86C269.701 147.594 271.43 148.8 273.161 149.922C275.083 151.167 277.099 152.429 278.312 154.438C278.459 154.682 278.827 154.439 278.68 154.196C276.57 150.701 272.323 149.534 269.66 146.59C268.417 145.217 267.58 143.46 267.896 141.573C268.173 139.923 269.127 138.489 269.892 137.035C270.722 135.553 271.176 133.891 271.217 132.193C271.186 130.411 270.853 128.646 270.232 126.976C268.894 123.192 266.97 119.643 264.531 116.459C261.768 112.809 258.402 109.66 254.579 107.147C254.342 106.992 254.148 107.389 254.383 107.543V107.543Z" fill="black"/>
<path d="M268.773 123.909C270.003 123.236 270.954 122.146 271.456 120.835C271.959 119.523 271.98 118.076 271.515 116.75C271.42 116.482 271.001 116.618 271.096 116.886C271.53 118.119 271.511 119.468 271.04 120.688C270.57 121.908 269.68 122.92 268.531 123.54C268.281 123.675 268.525 124.043 268.773 123.909Z" fill="black"/>
<path d="M270.07 135.965C267.314 135.181 264.953 133.385 263.459 130.935C263.312 130.692 262.943 130.934 263.091 131.177C264.65 133.724 267.11 135.588 269.98 136.397C270.254 136.474 270.342 136.041 270.07 135.965V135.965Z" fill="black"/>
<path d="M261.481 113.319C261.059 113.679 260.555 113.929 260.013 114.045C259.471 114.161 258.909 114.141 258.377 113.986C258.105 113.905 258.017 114.339 258.288 114.418C258.876 114.587 259.497 114.609 260.096 114.482C260.695 114.354 261.253 114.082 261.723 113.689C261.77 113.655 261.803 113.605 261.815 113.548C261.827 113.492 261.816 113.432 261.786 113.383C261.754 113.334 261.704 113.3 261.646 113.288C261.589 113.276 261.53 113.288 261.481 113.319H261.481Z" fill="black"/>
<path d="M231.145 131.981C231.314 132.036 231.483 132.091 231.653 132.15C233.917 132.902 236.117 133.837 238.231 134.946C238.396 135.029 238.562 135.115 238.724 135.203C243.788 137.929 248.303 141.573 252.039 145.951C253.524 147.694 254.875 149.548 256.079 151.497C257.743 154.188 259.333 157.239 261.716 159.166C261.962 159.37 262.221 159.558 262.491 159.73L278.241 155.5C278.272 155.472 278.304 155.448 278.335 155.421L278.972 155.281C278.916 155.176 278.857 155.068 278.802 154.963C278.77 154.902 278.735 154.842 278.703 154.781C278.681 154.741 278.659 154.701 278.641 154.663C278.633 154.65 278.626 154.636 278.62 154.626C278.602 154.589 278.581 154.556 278.564 154.521C278.234 153.919 277.899 153.318 277.559 152.719C277.558 152.715 277.558 152.715 277.553 152.713C275.006 148.119 271.923 143.844 268.371 139.979C268.263 139.865 268.155 139.747 268.04 139.635C266.42 137.937 264.663 136.374 262.789 134.962C261.76 134.193 260.693 133.476 259.592 132.814C256.743 131.11 253.644 129.866 250.41 129.127C243.962 127.655 237.115 128.267 231.567 131.714C231.425 131.802 231.286 131.889 231.145 131.981Z" fill="#F2F2F2"/>
<path d="M231.234 132.172C239.494 131.627 247.716 133.704 254.732 138.108C256.259 139.03 257.631 140.186 258.799 141.536C259.894 142.887 260.608 144.508 260.866 146.23C261.14 147.83 261.234 149.499 261.891 151.005C262.239 151.77 262.744 152.454 263.373 153.01C264.003 153.567 264.743 153.984 265.545 154.233C267.526 154.908 269.631 154.828 271.687 154.679C273.969 154.513 276.338 154.305 278.513 155.177C278.777 155.283 278.925 154.867 278.662 154.762C274.877 153.244 270.785 154.874 266.89 154.131C265.073 153.785 263.349 152.887 262.467 151.189C261.697 149.705 261.598 147.984 261.335 146.362C261.107 144.679 260.472 143.077 259.484 141.697C258.389 140.292 257.063 139.084 255.563 138.125C252.222 135.912 248.553 134.239 244.693 133.168C240.294 131.921 235.715 131.437 231.153 131.738C230.871 131.757 230.954 132.191 231.234 132.172V132.172Z" fill="black"/>
<path d="M252.556 136.557C253.134 135.277 253.238 133.833 252.852 132.483C252.465 131.133 251.612 129.964 250.445 129.186C250.208 129.03 249.954 129.391 250.191 129.548C251.279 130.27 252.074 131.359 252.431 132.617C252.789 133.875 252.686 135.219 252.141 136.408C252.023 136.666 252.439 136.814 252.556 136.557L252.556 136.557Z" fill="black"/>
<path d="M260.834 145.4C258.163 146.437 255.199 146.427 252.534 145.372C252.27 145.267 252.122 145.683 252.386 145.788C255.161 146.881 258.245 146.885 261.023 145.799C261.287 145.696 261.098 145.297 260.834 145.4V145.4Z" fill="black"/>
<path d="M240.372 132.501C240.251 133.043 239.998 133.547 239.636 133.966C239.273 134.386 238.812 134.709 238.294 134.906C238.028 135.006 238.218 135.405 238.482 135.306C239.054 135.085 239.562 134.728 239.964 134.265C240.366 133.802 240.648 133.248 240.787 132.65C240.804 132.595 240.8 132.535 240.776 132.483C240.751 132.43 240.707 132.389 240.653 132.368C240.598 132.349 240.538 132.352 240.485 132.377C240.432 132.402 240.392 132.446 240.372 132.501V132.501Z" fill="black"/>
<path d="M78.6142 53.784C80.6607 53.784 82.3197 52.1214 82.3197 50.0705C82.3197 48.0195 80.6607 46.3569 78.6142 46.3569C76.5677 46.3569 74.9087 48.0195 74.9087 50.0705C74.9087 52.1214 76.5677 53.784 78.6142 53.784Z" fill="#FD6584"/>
<path d="M220.451 90.4218C220.779 88.3974 219.407 86.4899 217.387 86.1614C215.367 85.8329 213.464 87.2077 213.136 89.2321C212.808 91.2566 214.18 93.164 216.2 93.4925C218.22 93.8211 220.123 92.4463 220.451 90.4218Z" fill="#E6E6E6"/>
<path d="M78.4633 11.9938C80.5098 11.9938 82.1688 10.3312 82.1688 8.28031C82.1688 6.22938 80.5098 4.56677 78.4633 4.56677C76.4168 4.56677 74.7578 6.22938 74.7578 8.28031C74.7578 10.3312 76.4168 11.9938 78.4633 11.9938Z" fill="#E6E6E6"/>
<path d="M189.029 51.979H187.971V22.9417C187.971 18.4845 186.204 14.2099 183.059 11.0581C179.914 7.90639 175.649 6.13575 171.201 6.13574H109.815C107.613 6.13574 105.432 6.57043 103.397 7.415C101.363 8.25958 99.5141 9.49749 97.9569 11.0581C96.3997 12.6186 95.1645 14.4713 94.3217 16.5103C93.4789 18.5493 93.0452 20.7347 93.0452 22.9417V22.9417V182.242C93.0452 186.7 94.812 190.974 97.9569 194.126C101.102 197.278 105.367 199.048 109.815 199.048H171.201C175.649 199.048 179.914 197.278 183.059 194.126C186.204 190.974 187.971 186.7 187.971 182.242V72.6482H189.029V51.979Z" fill="#3F3D56"/>
<path d="M184.4 23.0584V182.126C184.401 183.774 184.077 185.405 183.448 186.928C182.819 188.45 181.897 189.834 180.734 190.999C179.572 192.164 178.192 193.089 176.673 193.72C175.154 194.35 173.525 194.675 171.881 194.675H110.195C106.874 194.675 103.689 193.354 101.34 191C98.9919 188.647 97.6725 185.455 97.6724 182.127V23.0584C97.6723 21.4105 97.9961 19.7786 98.6253 18.2561C99.2544 16.7336 100.177 15.3501 101.339 14.1848C102.502 13.0194 103.882 12.095 105.402 11.4643C106.921 10.8336 108.549 10.5089 110.193 10.5088H117.681C117.312 11.4141 117.171 12.3964 117.271 13.369C117.37 14.3417 117.707 15.275 118.251 16.0866C118.795 16.8982 119.53 17.5632 120.391 18.023C121.252 18.4829 122.213 18.7235 123.188 18.7235H158.357C159.333 18.7228 160.293 18.4818 161.154 18.0218C162.015 17.5618 162.749 16.8968 163.293 16.0854C163.837 15.274 164.174 14.3411 164.274 13.3686C164.373 12.3962 164.233 11.4141 163.865 10.5088H171.878C173.522 10.5087 175.151 10.8332 176.67 11.4638C178.189 12.0944 179.57 13.0186 180.732 14.1839C181.895 15.3491 182.818 16.7324 183.447 18.2549C184.076 19.7773 184.4 21.4091 184.4 23.0571V23.0571L184.4 23.0584Z" fill="#FBFDF9"/>
<path d="M121.482 25.6929H102.347V26.5513H121.482V25.6929Z" fill="black"/>
<path d="M150.604 25.6929H131.469V26.5513H150.604V25.6929Z" fill="black"/>
<path d="M171.036 128.473H108.658C108.448 128.473 108.24 128.432 108.046 128.351C107.851 128.271 107.675 128.153 107.526 128.004C107.378 127.855 107.26 127.678 107.179 127.483C107.099 127.289 107.058 127.08 107.058 126.869C107.058 126.659 107.099 126.45 107.179 126.256C107.26 126.061 107.378 125.884 107.526 125.735C107.675 125.586 107.851 125.468 108.046 125.388C108.24 125.307 108.448 125.266 108.658 125.266H171.036C171.246 125.266 171.454 125.307 171.648 125.388C171.842 125.468 172.019 125.586 172.167 125.735C172.316 125.884 172.434 126.061 172.514 126.256C172.595 126.45 172.636 126.659 172.636 126.869C172.636 127.08 172.595 127.289 172.514 127.483C172.434 127.678 172.316 127.855 172.167 128.004C172.019 128.153 171.842 128.271 171.648 128.351C171.454 128.432 171.246 128.473 171.036 128.473V128.473Z" fill="#CCCCCC"/>
<path d="M171.036 139.632H108.658C108.234 139.632 107.827 139.463 107.526 139.163C107.226 138.862 107.058 138.454 107.058 138.028C107.058 137.603 107.226 137.195 107.526 136.894C107.827 136.594 108.234 136.425 108.658 136.425H171.036C171.46 136.425 171.867 136.594 172.167 136.894C172.467 137.195 172.636 137.603 172.636 138.028C172.636 138.454 172.467 138.862 172.167 139.163C171.867 139.463 171.46 139.632 171.036 139.632V139.632Z" fill="#CCCCCC"/>
<path d="M171.036 150.791H108.658C108.234 150.791 107.827 150.622 107.526 150.322C107.226 150.021 107.058 149.613 107.058 149.187C107.058 148.762 107.226 148.354 107.526 148.053C107.827 147.752 108.234 147.583 108.658 147.583H171.036C171.46 147.583 171.867 147.752 172.167 148.053C172.467 148.354 172.636 148.762 172.636 149.187C172.636 149.613 172.467 150.021 172.167 150.322C171.867 150.622 171.46 150.791 171.036 150.791V150.791Z" fill="#CCCCCC"/>
<path d="M179.726 25.6929H160.591V26.5513H179.726V25.6929Z" fill="black"/>
<path d="M121.482 179.773H102.347V180.631H121.482V179.773Z" fill="black"/>
<path d="M150.604 179.773H131.469V180.631H150.604V179.773Z" fill="black"/>
<path d="M179.726 179.773H160.591V180.631H179.726V179.773Z" fill="black"/>
<path d="M141.036 106.501C157.056 106.501 170.042 93.4868 170.042 77.4326C170.042 61.3784 157.056 48.3639 141.036 48.3639C125.017 48.3639 112.031 61.3784 112.031 77.4326C112.031 93.4868 125.017 106.501 141.036 106.501Z" fill="#D1D3D4"/>
<path d="M141.037 105.24C155.651 105.24 167.499 93.367 167.499 78.7207C167.499 64.0745 155.651 52.2013 141.037 52.2013C126.422 52.2013 114.574 64.0745 114.574 78.7207C114.574 93.367 126.422 105.24 141.037 105.24Z" fill="#00696E"/>
<path d="M138.726 89.1147C138.669 89.1147 138.611 89.1133 138.554 89.1106C138.046 89.0859 137.55 88.9515 137.099 88.7166C136.648 88.4818 136.253 88.152 135.942 87.75L131.771 82.3767C131.197 81.6363 130.94 80.6982 131.056 79.7682C131.172 78.8382 131.652 77.9922 132.389 77.4159L132.538 77.2993C133.277 76.7246 134.214 76.467 135.142 76.5831C136.07 76.6991 136.914 77.1792 137.49 77.9182C137.677 78.1597 137.914 78.3577 138.185 78.4987C138.456 78.6397 138.753 78.7203 139.058 78.7351C139.363 78.753 139.668 78.7032 139.952 78.5892C140.236 78.4751 140.491 78.2997 140.699 78.0755L149.167 69.1172C149.811 68.4376 150.697 68.0418 151.632 68.0164C152.567 67.9911 153.474 68.3383 154.153 68.9819L154.291 69.1124C154.97 69.7576 155.365 70.6462 155.39 71.5832C155.416 72.5203 155.069 73.4291 154.427 74.1103L141.286 88.0108C140.957 88.3596 140.56 88.6375 140.12 88.8273C139.68 89.0171 139.206 89.1149 138.726 89.1147V89.1147Z" fill="#F1F1F1"/>
<path d="M94.6915 36.7504H91.2654V55.2057H94.6915V36.7504Z" fill="#3F3D56"/>
<path d="M94.6915 57.3517H91.2654V68.0815H94.6915V57.3517Z" fill="#3F3D56"/>
<path d="M94.6915 70.2274H91.2654V80.9572H94.6915V70.2274Z" fill="#3F3D56"/>
<path d="M124.242 14.8616C125.188 14.8616 125.955 14.093 125.955 13.1449C125.955 12.1967 125.188 11.4281 124.242 11.4281C123.296 11.4281 122.529 12.1967 122.529 13.1449C122.529 14.093 123.296 14.8616 124.242 14.8616Z" fill="black"/>
<path opacity="0.16" d="M141.036 101.567C134.342 101.566 127.896 99.0214 122.999 94.4465C118.102 89.8717 115.117 83.6065 114.647 76.9138C114.604 77.5312 114.574 78.1523 114.574 78.7806C114.574 85.814 117.362 92.5593 122.325 97.5327C127.287 102.506 134.018 105.3 141.036 105.3C148.055 105.3 154.785 102.506 159.748 97.5327C164.711 92.5593 167.499 85.814 167.499 78.7806C167.499 78.1523 167.469 77.5312 167.426 76.9138C166.956 83.6065 163.971 89.8717 159.074 94.4465C154.177 99.0214 147.731 101.566 141.036 101.567V101.567Z" fill="#231F20"/>
<path d="M178.344 100.12L199.329 100.979L201.898 86.815L183.911 81.2358L178.344 100.12Z" fill="#FFB8B8"/>
<path d="M186.275 69.4435L186.478 62.7523L176.308 60.1969L157.997 54.8433C157.754 54.1066 157.295 53.4609 156.678 52.9918C156.062 52.5226 155.318 52.2521 154.544 52.216C153.771 52.1798 153.005 52.3798 152.348 52.7894C151.691 53.199 151.173 53.7989 150.863 54.5098C150.553 55.2208 150.466 56.0092 150.613 56.7708C150.76 57.5324 151.135 58.2313 151.687 58.775C152.239 59.3187 152.943 59.6817 153.705 59.8158C154.468 59.95 155.253 59.849 155.957 59.5263L173.758 66.8597L186.275 69.4435Z" fill="#FFB8B8"/>
<path d="M179.721 69.3967L185.443 61.2188L185.586 61.2378C185.675 61.2497 194.648 62.4526 200.53 64.208C201.191 64.3836 201.806 64.7015 202.331 65.1397C202.857 65.5779 203.282 66.1257 203.574 66.745C203.995 67.6105 204.154 68.5802 204.032 69.535C203.91 70.4898 203.513 71.3881 202.889 72.1198C202.253 72.9107 201.404 73.5015 200.443 73.8216C199.481 74.1418 198.448 74.1777 197.467 73.9251L179.721 69.3967Z" fill="#00696E"/>
<path d="M183.346 193.38L177.526 193.379L174.757 170.883L183.346 170.884L183.346 193.38Z" fill="#FFB8B8"/>
<path d="M228.66 190.855L222.906 191.727L216.812 169.898L224.356 168.611L228.66 190.855Z" fill="#FFB8B8"/>
<path d="M200.185 96.6863L180.057 93.2528L179.341 94.7317C175.488 102.699 173.214 111.339 172.643 120.174C172.157 127.633 171.871 135.51 171.861 143.767C171.847 156.561 172.498 168.433 173.528 179.235L184.575 179.165C184.256 167.697 184.691 156.219 185.876 144.808C186.721 136.67 187.897 129.069 189.256 122.055C191.778 132.352 195.338 142.365 199.879 151.941C203.74 160.123 211.681 169.58 215.541 177.762C219.497 177.286 223.453 176.81 227.409 176.335C224.291 168.072 218.73 156.007 215.612 147.745C211.155 135.932 209.142 127.922 204.684 116.109C204.938 113.888 204.988 111.648 204.832 109.419C204.625 105.702 203.853 101.242 201.599 98.2688L200.185 96.6863Z" fill="#414646"/>
<path d="M203.295 90.5286C204.3 92.4116 201.913 96.3126 200.185 96.6864L180.28 90.2383L190.303 61.1329L195.345 62.0514L203.41 63.4131L206.271 66.0189C206.991 66.6758 207.506 67.5282 207.752 68.4726C207.998 69.417 207.965 70.4127 207.658 71.3388L203.295 90.5286Z" fill="#00696E"/>
<path d="M189.592 79.2805L183.961 75.6792L176.563 83.1253L162.598 96.1459C161.842 95.9772 161.053 96.0424 160.336 96.3328C159.618 96.6232 159.005 97.1251 158.578 97.7722C158.151 98.4193 157.93 99.181 157.945 99.9566C157.959 100.732 158.208 101.485 158.659 102.116C159.11 102.746 159.741 103.225 160.469 103.488C161.197 103.752 161.988 103.787 162.736 103.591C163.485 103.394 164.157 102.974 164.662 102.386C165.167 101.799 165.483 101.071 165.567 100.3L180.968 88.7319L189.592 79.2805Z" fill="#FFB8B8"/>
<path d="M186.196 84.8976L182.117 75.7851L182.206 75.6719C182.262 75.6009 187.888 68.4933 192.404 64.3291C192.893 63.8499 193.481 63.4834 194.126 63.2552C194.77 63.0269 195.457 62.9423 196.138 63.0073C197.095 63.089 198.007 63.4488 198.763 64.0426C199.519 64.6363 200.085 65.4382 200.393 66.35C200.746 67.3017 200.817 68.3351 200.599 69.3265C200.382 70.318 199.883 71.2256 199.164 71.9408L186.196 84.8976Z" fill="#00696E"/>
<path d="M198.885 59.188C203.774 59.188 207.737 55.2159 207.737 50.3161C207.737 45.4164 203.774 41.4443 198.885 41.4443C193.995 41.4443 190.032 45.4164 190.032 50.3161C190.032 55.2159 193.995 59.188 198.885 59.188Z" fill="#FFB8B8"/>
<path d="M206.034 63.1718L206 63.1632L193.135 59.9386C192.69 59.8269 192.276 59.612 191.928 59.3113C191.58 59.0105 191.308 58.6322 191.132 58.2067C190.956 57.7812 190.882 57.3204 190.916 56.8611C190.95 56.4019 191.091 55.957 191.328 55.5622L191.753 54.8537C192.168 54.1618 192.403 53.3768 192.438 52.5703C192.472 51.7638 192.305 50.9614 191.95 50.2365C191.341 49.0526 190.293 48.1553 189.031 47.7372L188.988 47.7167L188.718 47.5482C188.452 47.4226 188.216 47.2428 188.024 47.0202C187.831 46.7977 187.688 46.5374 187.602 46.256C187.513 45.9644 187.486 45.6573 187.522 45.3546C187.559 45.0518 187.659 44.7601 187.815 44.4984C188.95 42.5946 190.65 41.093 192.677 40.2025C195.238 39.0976 198.123 39.0107 200.745 39.9596C200.92 39.7987 201.132 39.6838 201.362 39.6253C201.592 39.5667 201.832 39.5663 202.063 39.6241C208.725 41.2411 209.273 45.7227 207.957 52.9167L209.515 59.2135C209.625 59.6581 209.637 60.1214 209.551 60.5712C209.464 61.021 209.281 61.4465 209.013 61.8182C208.746 62.1898 208.401 62.4987 208.003 62.7233C207.605 62.9479 207.162 63.0829 206.707 63.1188L206.034 63.1718ZM200.674 40.0304L200.673 40.0313L200.674 40.0304ZM200.835 39.991L200.836 39.9914L200.835 39.991Z" fill="#414646"/>
<path d="M184.764 199.212H181.442L180.849 196.069L179.331 199.212H170.522C170.099 199.212 169.688 199.076 169.348 198.826C169.008 198.575 168.757 198.222 168.631 197.818C168.505 197.414 168.512 196.98 168.649 196.58C168.787 196.18 169.049 195.834 169.396 195.594L176.431 190.725V187.548L183.831 187.99L184.764 199.212Z" fill="#414646"/>
<path d="M229.586 199.212H226.265L225.672 196.069L224.153 199.212H215.344C214.922 199.212 214.511 199.076 214.171 198.826C213.83 198.575 213.579 198.222 213.453 197.818C213.328 197.414 213.334 196.98 213.472 196.58C213.61 196.18 213.871 195.834 214.219 195.594L221.254 190.725V187.548L228.653 187.99L229.586 199.212Z" fill="#414646"/>
</g>
<defs>
<clipPath id="clip0_296_2">
<rect width="280" height="200" fill="white"/>
</clipPath>
</defs>
</svg>
