<svg width="32" height="32" viewBox="0 0 32 32" fill="none" xmlns="http://www.w3.org/2000/svg">
<path d="M25.6962 16.2334C26.1664 16.2074 26.6346 16.3031 27.0502 16.5107C27.4747 16.7228 27.9676 16.7015 28.3687 16.4535C28.7639 16.2092 28.9999 15.7851 28.9999 15.3193V9.35789C28.9999 9.07189 28.768 8.83996 28.482 8.83996H22.5206C22.3756 8.83996 22.2996 8.75222 22.2673 8.69991C22.2395 8.65501 22.1829 8.53475 22.2556 8.38905C22.5437 7.8126 22.6768 7.16437 22.6406 6.51453C22.5351 4.61944 20.966 3.077 19.0685 3.00299C18.0433 2.96265 17.074 3.33146 16.3369 4.04045C15.5993 4.7497 15.1932 5.70371 15.1932 6.72672C15.1932 7.31306 15.3257 7.87444 15.5873 8.39537C15.658 8.53614 15.6024 8.65377 15.5752 8.69784C15.5424 8.75093 15.4657 8.83996 15.3195 8.83996H9.35783C9.07184 8.83996 8.83991 9.07189 8.83991 9.35789V15.3192C8.83991 15.4642 8.75217 15.5401 8.69981 15.5725C8.65496 15.6003 8.5347 15.6569 8.389 15.5842C7.8126 15.2962 7.16473 15.1629 6.51458 15.1992C4.61949 15.3047 3.07701 16.8737 3.00294 18.7712C2.96296 19.7955 3.33136 20.7657 4.04035 21.5029C4.74965 22.2404 5.70366 22.6466 6.72672 22.6466C7.31307 22.6466 7.87444 22.5141 8.39537 22.2525C8.53635 22.1818 8.65382 22.2375 8.69784 22.2646C8.75093 22.2974 8.83996 22.3741 8.83996 22.5203V28.4821C8.83996 28.7681 9.07189 29 9.35789 29H15.3192C15.7851 29 16.2091 28.764 16.4535 28.3688C16.7014 27.9677 16.7228 27.4748 16.5107 27.0502C16.3032 26.6347 16.2072 26.1665 16.2333 25.6962C16.3095 24.3287 17.4421 23.2156 18.8116 23.1622C19.5512 23.1334 20.2526 23.3992 20.7849 23.9112C21.3174 24.4233 21.6107 25.1122 21.6107 25.8509C21.6107 26.2744 21.5152 26.6794 21.3268 27.0548C21.1153 27.4759 21.1363 27.966 21.383 28.3658C21.6279 28.7628 22.0531 28.9999 22.5202 28.9999H28.482C28.768 28.9999 28.9999 28.768 28.9998 28.482V22.5203C28.9998 22.0531 28.7628 21.628 28.3657 21.383C27.9659 21.1364 27.4759 21.1154 27.0547 21.3268C26.6793 21.5152 26.2743 21.6108 25.8507 21.6108C25.1121 21.6108 24.4232 21.3175 23.9111 20.7849C23.3991 20.2526 23.1331 19.5518 23.162 18.8116C23.2155 17.442 24.3287 16.3095 25.6962 16.2334ZM23.1645 21.5029C23.8738 22.2404 24.8278 22.6466 25.8508 22.6466C26.4371 22.6466 26.9985 22.5141 27.5196 22.2525C27.6603 22.1818 27.7779 22.2374 27.8219 22.2646C27.875 22.2974 27.964 22.3741 27.964 22.5203V27.964H22.5203C22.3741 27.964 22.2974 27.875 22.2646 27.8219C22.2374 27.7779 22.1819 27.6603 22.2526 27.5195C22.514 26.9985 22.6466 26.4371 22.6466 25.8508C22.6466 24.8278 22.2404 23.8738 21.5029 23.1645C20.802 22.4903 19.8904 22.1241 18.9218 22.1241C18.8719 22.1241 18.8216 22.1251 18.7713 22.127C16.8738 22.201 15.3047 23.7434 15.1991 25.6385C15.1629 26.2884 15.2961 26.9366 15.5841 27.513C15.6569 27.6588 15.6002 27.779 15.5724 27.8239C15.54 27.8762 15.4642 27.9639 15.3192 27.9639H9.87571V22.5202C9.87571 22.053 9.63865 21.6278 9.24161 21.3829C8.84183 21.1363 8.35171 21.1153 7.93059 21.3267C7.5552 21.5151 7.15018 21.6107 6.72667 21.6107C5.98801 21.6107 5.29911 21.3174 4.78689 20.7848C4.27502 20.2524 4.00901 19.5517 4.03797 18.8115C4.09147 17.4419 5.20459 16.3094 6.57212 16.2333C7.04214 16.2073 7.51055 16.303 7.92603 16.5106C8.35052 16.7227 8.84343 16.7014 9.24456 16.4535C9.63984 16.2091 9.87581 15.7851 9.87581 15.3192V9.87571H15.3196C15.7867 9.87571 16.2119 9.63865 16.4568 9.24161C16.7035 8.84188 16.7245 8.35171 16.5131 7.93059C16.3247 7.55519 16.2291 7.15018 16.2291 6.72667C16.2291 5.988 16.5224 5.29916 17.0549 4.78699C17.5872 4.27512 18.2879 4.0088 19.0282 4.03796C20.3978 4.09136 21.5303 5.20449 21.6064 6.57202C21.6326 7.04234 21.5367 7.5105 21.3291 7.92608C21.117 8.35062 21.1384 8.84353 21.3863 9.24462C21.6306 9.63984 22.0547 9.87581 22.5206 9.87581H27.964V15.3192C27.964 15.4642 27.8763 15.5402 27.824 15.5725C27.779 15.6003 27.6588 15.6569 27.5131 15.5842C26.9367 15.2962 26.289 15.1629 25.6387 15.1992C23.7436 15.3047 22.2011 16.8737 22.1271 18.7712C22.087 19.7955 22.4555 20.7657 23.1645 21.5029Z" fill="#00696E"/>
<path d="M13.3367 10.7651H11.2832C10.9972 10.7651 10.7652 10.9971 10.7652 11.2831C10.7652 11.5691 10.9972 11.801 11.2832 11.801H13.3367C13.6227 11.801 13.8546 11.5691 13.8546 11.2831C13.8546 10.9971 13.6227 10.7651 13.3367 10.7651Z" fill="#00696E"/>
<path d="M15.8395 10.7651H15.262C14.976 10.7651 14.744 10.9971 14.744 11.2831C14.744 11.5691 14.976 11.801 15.262 11.801H15.8395C16.1255 11.801 16.3574 11.5691 16.3574 11.2831C16.3574 10.9971 16.1255 10.7651 15.8395 10.7651Z" fill="#00696E"/>
</svg>
