<svg width="1556" height="715" viewBox="0 0 1556 715" fill="none" xmlns="http://www.w3.org/2000/svg">
<g filter="url(#filter0_d_518_3678)">
<rect width="1556" height="715" fill="#37B679"/>
</g>
<path d="M768.731 590.1L461.814 409.03C452.046 403.559 443.661 394.56 453.19 388.68L761.217 211.429C765.845 208.565 772.863 206.691 777.56 209.418L1099.74 396.111C1109.51 401.77 1111.27 417.586 1101.45 423.262L809.238 589.776C803.099 593.344 796.132 595.251 789.028 595.307C781.923 595.364 774.927 593.569 768.731 590.1V590.1Z" fill="#157E9F"/>
<path opacity="0.32" d="M736.505 293.576L682.779 325.771L922.12 474.526L985.99 437.542" fill="url(#paint0_linear_518_3678)"/>
<path opacity="0.32" d="M705.391 429.258L605.129 487.291L690.141 542.852C721.649 520.202 753.891 498.539 784.75 475.037C761.217 455.181 734.098 440.319 705.391 429.258Z" fill="url(#paint1_linear_518_3678)"/>
<path d="M985.991 260.648L736.506 119V293.576L985.991 437.542V260.648Z" fill="#268758"/>
<path d="M740.792 460.684L738.965 459.304L740.587 437.676L750.116 438.017C750.116 438.017 749.638 447.254 751.67 449.521C753.703 451.788 759.441 450.68 759.97 450.902C760.5 451.123 764.325 450.305 765.879 452.163C767.433 454.02 759.68 458.452 755.632 459.082C752.909 459.433 750.146 459.341 747.452 458.81C747.452 458.81 747.008 453.219 745.608 453.697C744.208 454.174 743.678 459.986 743.678 459.986L740.792 460.684Z" fill="#9C4100"/>
<path d="M736.865 392.601C736.079 415.218 735.242 444.686 735.242 444.686C735.242 444.686 740.365 451.708 754.454 448.708C755.957 448.384 759.304 412.337 760.944 393.59C753.095 391.45 744.863 391.112 736.865 392.601V392.601Z" fill="#7EC971"/>
<path d="M765.639 479.313L763.812 477.933L765.434 456.305L774.963 456.646C774.963 456.646 774.485 465.883 776.517 468.15C778.549 470.417 784.287 469.309 784.817 469.53C785.346 469.752 789.172 468.934 790.726 470.792C792.28 472.649 784.526 477.081 780.479 477.711C777.756 478.062 774.993 477.97 772.299 477.439C772.299 477.439 771.855 471.848 770.455 472.326C769.054 472.803 768.525 478.615 768.525 478.615L765.639 479.313Z" fill="#053855"/>
<path d="M769.721 396.708C763.456 393.874 756.726 392.199 749.86 391.766C751.022 400.287 752.098 406.099 752.285 406.525C752.746 407.599 761.473 461.337 761.473 461.337C771.72 465.479 783.947 462.019 783.947 462.019C783.947 462.019 779.746 420.092 779.404 413.087C779.404 412.337 779.365 411.581 779.285 410.82C779.13 407.822 778.157 404.922 776.472 402.435C774.787 399.948 772.452 397.968 769.721 396.708V396.708Z" fill="#7EC971"/>
<path d="M706.397 409.219C706.397 409.219 723.851 393.454 736.864 392.619C749.877 391.784 768.372 405.248 766.92 413.071C765.468 420.894 740.569 437.716 740.569 437.716" fill="#7EC971"/>
<path d="M742.09 381.063L728.189 371.246C727.63 370.851 727.226 370.276 727.045 369.616C726.864 368.957 726.919 368.256 727.199 367.633L737.052 345.766C737.225 345.383 737.478 345.041 737.794 344.763C738.11 344.486 738.482 344.278 738.884 344.156C739.287 344.033 739.711 343.998 740.129 344.052C740.546 344.106 740.947 344.249 741.305 344.471L756.845 354.134C757.478 354.527 757.939 355.144 758.135 355.861C758.332 356.579 758.249 357.344 757.904 358.003L746.411 380.006C746.217 380.38 745.945 380.707 745.614 380.967C745.283 381.227 744.9 381.413 744.491 381.513C744.082 381.614 743.656 381.625 743.242 381.547C742.828 381.47 742.435 381.305 742.09 381.063V381.063Z" fill="#1784AA"/>
<path d="M740.928 380.296L727.027 370.479C726.468 370.084 726.064 369.508 725.883 368.849C725.702 368.19 725.757 367.489 726.037 366.866L735.805 345.016C735.978 344.633 736.23 344.291 736.546 344.013C736.862 343.736 737.234 343.528 737.637 343.406C738.039 343.283 738.464 343.248 738.881 343.302C739.299 343.356 739.7 343.499 740.057 343.721L755.598 353.384C756.231 353.777 756.691 354.394 756.888 355.111C757.084 355.829 757.002 356.594 756.657 357.253L745.163 379.256C744.967 379.616 744.698 379.93 744.373 380.18C744.047 380.43 743.674 380.61 743.275 380.708C742.877 380.805 742.462 380.819 742.058 380.748C741.654 380.678 741.269 380.523 740.928 380.296V380.296Z" fill="#29ABE2"/>
<path d="M743.165 378.965L727.522 367.92L737.786 345.15L755.171 355.956L743.165 378.965Z" fill="#E4F5FD"/>
<path d="M735.924 354.81C730.801 357.639 722.655 360.86 717.139 364.61C716.268 365.206 714.97 367.285 715.824 366.979C715.448 367.405 719.017 368.802 718.676 369.262C718.573 369.416 720.981 368.086 721.118 368.138C723.166 369.224 725.547 369.51 727.795 368.939L728.7 368.274L728.922 368.138C728.961 368.07 729.013 368.012 729.076 367.967L729.213 367.865C729.238 367.735 729.311 367.62 729.418 367.541C730.613 366.604 733.243 366.109 733.516 364.524C733.469 364.106 733.342 363.701 733.141 363.331C733.078 363.235 733.053 363.118 733.072 363.005C733.091 362.891 733.152 362.789 733.243 362.718C733.343 362.246 733.348 361.758 733.257 361.284C733.166 360.81 732.981 360.359 732.714 359.957V359.957L733.021 359.599C734.438 358.608 735.779 357.515 737.034 356.326C737.175 356.197 737.265 356.022 737.29 355.832V355.747C737.296 355.696 737.296 355.645 737.29 355.594C737.274 355.441 737.222 355.294 737.138 355.166C737.054 355.037 736.941 354.93 736.808 354.854C736.674 354.777 736.525 354.734 736.371 354.726C736.218 354.718 736.064 354.747 735.924 354.81V354.81Z" fill="#E85454"/>
<path d="M733.295 360.399C732.902 359.411 732.339 359.36 731.434 359.752C729.637 360.565 727.921 361.546 726.31 362.683C726.037 362.871 726.31 363.297 726.584 363.126C727.591 362.444 731.963 359.223 732.851 360.638C733.739 362.052 730.802 363.024 729.982 363.45L726.84 365.154C726.549 365.308 726.84 365.751 727.113 365.597L729.128 364.558C729.112 364.608 729.112 364.661 729.128 364.711C729.299 364.937 729.5 365.137 729.726 365.308C729.545 365.565 729.431 365.863 729.392 366.175C729.353 366.487 729.392 366.804 729.504 367.097L729.589 367.2C728.723 368.099 727.581 368.685 726.344 368.864C725.107 369.043 723.845 368.805 722.758 368.188C722.502 368.001 722.143 368.359 722.4 368.563C724.449 370.097 728.684 369.654 730.119 367.387C730.441 367.345 730.753 367.246 731.041 367.097C731.972 366.775 732.811 366.231 733.483 365.512C733.668 365.2 733.765 364.844 733.765 364.481C733.765 364.118 733.668 363.762 733.483 363.45V363.365C733.607 363.246 733.706 363.103 733.773 362.944C733.84 362.786 733.875 362.616 733.875 362.444C733.875 362.273 733.84 362.103 733.773 361.944C733.706 361.786 733.607 361.643 733.483 361.524C733.534 361.139 733.469 360.747 733.295 360.399V360.399ZM733.073 365.12C732.733 365.59 732.273 365.961 731.741 366.194C731.417 366.381 730.597 366.961 730.272 366.876C729.606 366.705 730.016 365.836 730.272 365.461C730.639 365.318 730.979 365.117 731.28 364.865L732.527 364.081L732.936 363.774C733.057 363.974 733.132 364.199 733.156 364.432C733.18 364.665 733.151 364.9 733.073 365.12V365.12ZM731.468 364.166C730.751 364.609 730.17 365.171 729.504 364.37C730.511 363.859 731.519 363.348 732.458 362.751C732.747 362.583 732.997 362.357 733.193 362.086C733.722 362.905 731.997 363.757 731.468 364.081V364.166Z" fill="#653200"/>
<path d="M720.435 360.711C720.435 360.711 723.851 361.495 724.192 368.807L721.597 375.351L707.371 367.988C707.371 367.988 710.769 363.677 720.435 360.711Z" fill="#88D3D8"/>
<path d="M754.164 364.137C753.105 366.472 752.046 368.585 751.158 370.954C750.509 369.369 749.911 368.074 749.109 366.557C749.073 366.503 749.033 366.451 748.989 366.404C748.844 366.169 748.624 365.989 748.364 365.895C748.104 365.801 747.819 365.796 747.557 365.883C747.294 365.97 747.069 366.142 746.916 366.373C746.764 366.603 746.694 366.878 746.718 367.153C746.981 368.604 747.564 369.978 748.426 371.176C748.305 371.237 748.196 371.318 748.101 371.414C746.052 373.681 746.547 377.158 746.786 379.936C746.796 380.121 746.853 380.3 746.952 380.456C747.051 380.612 747.189 380.74 747.352 380.827C747.515 380.915 747.698 380.959 747.883 380.955C748.068 380.951 748.249 380.899 748.409 380.805C748.6 380.808 748.788 380.761 748.955 380.669C750.796 379.404 752.114 377.514 752.661 375.351C753.873 371.84 755.359 367.903 754.164 364.137Z" fill="#E85454"/>
<path d="M701.07 363.971L706.194 362.438C707.474 362.625 718.592 367.159 723.271 375.067C723.83 377.478 724.207 379.928 724.398 382.395C724.825 385.685 725.167 388.991 725.32 392.298C725.535 395.904 725.478 399.522 725.15 403.12C724.996 404.654 724.893 405.438 724.62 406.955C724.024 407.472 723.342 407.881 722.605 408.165C707.235 413.5 695.862 404.859 695.401 403.597C694.94 402.336 694.205 384.611 693.829 374.044C693.765 371.805 694.438 369.608 695.746 367.788C697.054 365.968 698.925 364.627 701.07 363.971V363.971Z" fill="#88D3D8"/>
<path d="M714.679 345.684C714.679 345.684 718.095 363.068 711.725 364.943C705.355 366.817 697.756 359.574 697.209 355.995C696.663 352.416 705.68 339.889 714.679 345.684Z" fill="#E85454"/>
<path d="M712.204 352.638C712.392 352.348 716.097 351.376 716.866 348.275C717.634 345.173 714.834 341.099 708.413 340.52C701.991 339.94 691.216 343.434 692.872 360.307C694.529 377.18 711.538 369.92 712.648 364.534C713.238 360.575 713.087 356.542 712.204 352.638V352.638Z" fill="#653200"/>
<path d="M712.204 352.628C712.204 352.628 713.28 358.388 715.619 360.877C717.959 363.365 719.855 367.864 716.986 371.307C714.117 374.75 716.986 376.608 721.033 379.829C725.08 383.05 722.587 396.497 707.952 393.208C693.316 389.919 686.417 381.107 686.417 381.107C686.417 381.107 690.174 354.826 694.17 348.725" fill="#653200"/>
<path d="M723.271 375.352C723.271 375.352 726.584 386.43 729.897 386.771C733.21 387.112 738.23 382.22 741.765 375.829C743.031 375.697 744.31 375.826 745.523 376.208C746.737 376.591 747.859 377.217 748.819 378.05C749.78 378.882 750.559 379.903 751.108 381.048C751.657 382.194 751.965 383.439 752.012 384.708C752.012 384.708 740.348 408.296 723.339 402.536" fill="#88D3D8"/>
<path d="M737.394 359.666L739.221 359.104L739.989 361.694L745.966 359.564L746.223 361.387L738.948 364.046L737.394 359.666Z" fill="#E4F5FD"/>
<path d="M662.185 459.785C651.734 446.781 646.935 430.13 647.14 413.478C647.259 399.988 652.544 387.055 661.912 377.329C670.536 368.501 683.549 364.154 695.094 370.137C704.674 375.096 709.319 384.624 712.649 394.39C716.645 406.081 717.995 421.063 732.271 424.676C737.804 426.073 743.628 425.119 749.349 424.676C759.288 423.994 769.842 427.215 772.847 437.782C778.381 456.7 752.884 472.858 738.556 478.959C726.148 484.051 712.482 485.262 699.369 482.432C686.256 479.602 674.313 472.863 665.123 463.109C664.098 462.052 663.119 460.944 662.185 459.785Z" fill="#268758"/>
<path opacity="0.3" d="M772.539 437.034C762.395 455.339 729.384 463.588 711.384 462.6C695.041 461.764 684.709 451.811 685.768 435.33C686.383 426.263 689.183 417.23 688.449 408.061C687.066 392.517 672.277 379.751 657.18 382.785C650.712 391.72 647.185 402.441 647.087 413.463C646.882 430.115 651.664 446.749 662.133 459.77C663.066 460.907 664.04 462.043 665.053 463.179C674.244 472.933 686.186 479.672 699.299 482.502C712.413 485.333 726.078 484.122 738.486 479.029C752.831 472.928 778.311 456.771 772.778 437.852C772.743 437.563 772.641 437.307 772.539 437.034Z" fill="black"/>
<path d="M783.964 238.299V309.37L872.955 360.637V289.514L783.964 238.299Z" fill="white"/>
<path d="M877.634 292.773V363.845L966.607 415.128V343.989L877.634 292.773Z" fill="white"/>
<path d="M860.287 344.913C863.541 343.881 865.051 339.503 863.66 335.134C862.268 330.765 858.503 328.06 855.249 329.092C851.995 330.124 850.485 334.503 851.876 338.871C853.267 343.24 857.033 345.945 860.287 344.913Z" fill="#EA7554"/>
<path d="M860.351 333.201C860.146 333.201 858.404 334.241 858.473 334.599C858.541 334.957 859.361 336.201 859.275 336.422C859.19 336.644 857.414 338.843 856.406 338.996C855.743 338.577 855.12 338.097 854.545 337.564C854.225 337.687 853.941 337.889 853.72 338.152C853.499 338.414 853.348 338.728 853.281 339.064C853.929 340.009 854.845 340.739 855.911 341.16C857.209 341.604 861.222 337.172 861.7 336.047C862.179 334.923 860.351 333.201 860.351 333.201Z" fill="white"/>
<path d="M929.744 377.394C938.043 374.503 941.002 361.382 936.352 348.087C931.703 334.792 921.205 326.357 912.906 329.248C904.607 332.139 901.648 345.26 906.298 358.555C910.947 371.85 921.444 380.285 929.744 377.394Z" fill="#FFDE47"/>
<path d="M921.335 353.192V325.513C921.335 325.513 906.615 320.536 902.26 341.466L921.335 353.192Z" fill="#053855"/>
<path d="M921.334 353.191L907.672 366.008C907.672 366.008 901.32 361.048 902.259 341.363L921.334 353.191Z" fill="#FF9F9F"/>
<path d="M777.466 551.062H796.358L808.716 510.438H809.284L821.642 551.062H840.534L861.983 478.335H839.966L830.023 523.222H829.455L817.665 478.335H800.335L788.545 523.08H787.977L778.034 478.335H756.017L777.466 551.062ZM868.375 551.062H920.648V535.153H888.119V522.653H918.091V506.744H888.119V494.244H920.79V478.335H868.375V551.062ZM930.582 551.062H964.815C980.618 551.062 990.383 542.433 990.383 530.466C990.383 520.203 982.819 513.491 973.48 513.136V512.426C981.896 510.757 987.542 504.543 987.542 496.517C987.542 485.438 978.735 478.335 962.116 478.335H930.582V551.062ZM950.326 535.295V519.955H959.843C965.845 519.955 969.502 522.795 969.502 527.909C969.502 532.774 966.2 535.295 959.559 535.295H950.326ZM950.326 507.739V493.818H958.707C963.608 493.818 967.23 496.304 967.23 500.778C967.23 505.253 963.608 507.739 958.423 507.739H950.326ZM1017.12 478.335H997.379V551.062H1017.12V478.335ZM1089.41 478.335H1069.66V516.403H1069.09L1043.24 478.335H1026.48V551.062H1046.22V512.852H1046.65L1072.93 551.062H1089.41V478.335ZM1117.64 551.062L1121.83 537.142H1145.83L1150.02 551.062H1171.33L1147.33 478.335H1120.34L1096.33 551.062H1117.64ZM1126.3 522.369L1133.55 498.364H1134.12L1141.36 522.369H1126.3ZM1178.34 551.062H1198.08V527.057H1204.9L1217.68 551.062H1239.13L1224.36 523.932C1232.1 520.203 1236.72 513.136 1236.72 503.051C1236.72 487.568 1225.89 478.335 1209.73 478.335H1178.34V551.062ZM1198.08 511.716V494.102H1205.04C1211.97 494.102 1216.12 496.801 1216.12 503.051C1216.12 509.266 1211.97 511.716 1205.04 511.716H1198.08Z" fill="white"/>
<path d="M888.152 424.182V446H891.945V430.979H892.147L898.177 445.936H901.011L907.04 431.011H907.243V446H911.036V424.182H906.199L899.722 439.991H899.466L892.989 424.182H888.152ZM927.197 430.18H931C930.925 426.494 927.783 423.884 923.138 423.884C918.557 423.884 915.116 426.462 915.126 430.318C915.126 433.45 917.353 435.251 920.943 436.178L923.425 436.817C925.78 437.413 927.335 438.148 927.346 439.842C927.335 441.707 925.567 442.953 922.989 442.953C920.517 442.953 918.599 441.845 918.44 439.555H914.551C914.711 443.891 917.939 446.33 923.021 446.33C928.251 446.33 931.288 443.72 931.298 439.874C931.288 436.092 928.166 434.366 924.885 433.589L922.839 433.077C921.05 432.651 919.111 431.895 919.132 430.073C919.143 428.433 920.613 427.229 923.085 427.229C925.439 427.229 926.994 428.326 927.197 430.18ZM946.855 446H950.754L955.133 430.691H955.303L959.671 446H963.57L969.728 424.182H965.477L961.546 440.226H961.354L957.146 424.182H953.279L949.081 440.215H948.879L944.948 424.182H940.697L946.855 446ZM972.468 446H986.744V442.687H976.421V436.732H985.924V433.418H976.421V427.495H986.659V424.182H972.468V446ZM990.691 446H1004.25V442.687H994.643V424.182H990.691V446ZM1007.68 446H1021.25V442.687H1011.64V424.182H1007.68V446ZM1024.68 446H1033.51C1038.5 446 1040.95 443.454 1040.95 440.055C1040.95 436.753 1038.61 434.814 1036.29 434.697V434.484C1038.42 433.983 1040.1 432.491 1040.1 429.839C1040.1 426.589 1037.76 424.182 1033.03 424.182H1024.68V446ZM1028.63 442.697V436.305H1032.99C1035.42 436.305 1036.94 437.797 1036.94 439.746C1036.94 441.483 1035.74 442.697 1032.88 442.697H1028.63ZM1028.63 433.461V427.442H1032.62C1034.95 427.442 1036.15 428.667 1036.15 430.35C1036.15 432.268 1034.59 433.461 1032.54 433.461H1028.63ZM1044.39 446H1058.67V442.687H1048.34V436.732H1057.85V433.418H1048.34V427.495H1058.58V424.182H1044.39V446ZM1066.57 424.182H1062.61V446H1066.57V424.182ZM1088.78 424.182H1084.85V439.054H1084.65L1074.38 424.182H1070.85V446H1074.8V431.138H1074.98L1085.26 446H1088.78V424.182ZM1107.7 431.149H1111.73C1111.06 426.866 1107.35 423.884 1102.52 423.884C1096.81 423.884 1092.53 428.081 1092.53 435.112C1092.53 442.016 1096.62 446.298 1102.64 446.298C1108.04 446.298 1111.91 442.825 1111.91 437.2V434.58H1103.06V437.669H1108.08C1108.02 440.78 1105.94 442.751 1102.66 442.751C1099.01 442.751 1096.5 440.013 1096.5 435.07C1096.5 430.158 1099.05 427.431 1102.58 427.431C1105.21 427.431 1107 428.837 1107.7 431.149ZM1141.85 431.543C1141.18 426.696 1137.45 423.884 1132.61 423.884C1126.91 423.884 1122.62 428.038 1122.62 435.091C1122.62 442.133 1126.86 446.298 1132.61 446.298C1137.8 446.298 1141.24 442.942 1141.85 438.777L1137.86 438.756C1137.36 441.312 1135.27 442.751 1132.66 442.751C1129.13 442.751 1126.59 440.098 1126.59 435.091C1126.59 430.169 1129.11 427.431 1132.67 427.431C1135.33 427.431 1137.4 428.933 1137.86 431.543H1141.85ZM1145.47 446H1159.74V442.687H1149.42V436.732H1158.92V433.418H1149.42V427.495H1159.66V424.182H1145.47V446ZM1181.62 424.182H1177.69V439.054H1177.5L1167.23 424.182H1163.69V446H1167.64V431.138H1167.82L1178.1 446H1181.62V424.182ZM1184.97 427.495H1191.71V446H1195.63V427.495H1202.37V424.182H1184.97V427.495ZM1205.73 446H1220.01V442.687H1209.68V436.732H1219.19V433.418H1209.68V427.495H1219.92V424.182H1205.73V446ZM1223.95 446H1227.91V438.01H1231.93L1236.21 446H1240.63L1235.91 437.349C1238.47 436.316 1239.83 434.121 1239.83 431.16C1239.83 426.994 1237.14 424.182 1232.13 424.182H1223.95V446ZM1227.91 434.729V427.484H1231.53C1234.48 427.484 1235.8 428.837 1235.8 431.16C1235.8 433.482 1234.48 434.729 1231.55 434.729H1227.91Z" fill="white"/>
<defs>
<filter id="filter0_d_518_3678" x="-16" y="-13" width="1588" height="747" filterUnits="userSpaceOnUse" color-interpolation-filters="sRGB">
<feFlood flood-opacity="0" result="BackgroundImageFix"/>
<feColorMatrix in="SourceAlpha" type="matrix" values="0 0 0 0 0 0 0 0 0 0 0 0 0 0 0 0 0 0 127 0" result="hardAlpha"/>
<feOffset dy="3"/>
<feGaussianBlur stdDeviation="8"/>
<feComposite in2="hardAlpha" operator="out"/>
<feColorMatrix type="matrix" values="0 0 0 0 0 0 0 0 0 0 0 0 0 0 0 0 0 0 0.16 0"/>
<feBlend mode="normal" in2="BackgroundImageFix" result="effect1_dropShadow_518_3678"/>
<feBlend mode="normal" in="SourceGraphic" in2="effect1_dropShadow_518_3678" result="shape"/>
</filter>
<linearGradient id="paint0_linear_518_3678" x1="821.961" y1="398.785" x2="852.909" y2="355.914" gradientUnits="userSpaceOnUse">
<stop stop-color="#666666" stop-opacity="0"/>
<stop offset="1" stop-color="#4D4D4D"/>
</linearGradient>
<linearGradient id="paint1_linear_518_3678" x1="24812.6" y1="28186.1" x2="26804.8" y2="24077.9" gradientUnits="userSpaceOnUse">
<stop stop-color="#666666" stop-opacity="0"/>
<stop offset="1" stop-color="#4D4D4D"/>
</linearGradient>
</defs>
</svg>
