<svg width="32" height="32" viewBox="0 0 32 32" fill="none" xmlns="http://www.w3.org/2000/svg">
<circle cx="16" cy="16" r="12.5" stroke="#5793CF"/>
<path d="M15.778 21.084C15.526 21.084 15.316 21.014 15.148 20.874C14.9893 20.7247 14.91 20.5147 14.91 20.244V14.84C14.91 14.5693 14.9893 14.364 15.148 14.224C15.316 14.084 15.526 14.014 15.778 14.014C16.03 14.014 16.24 14.084 16.408 14.224C16.576 14.364 16.66 14.5693 16.66 14.84V20.244C16.66 20.5147 16.576 20.7247 16.408 20.874C16.24 21.014 16.03 21.084 15.778 21.084ZM15.778 12.768C15.4607 12.768 15.2087 12.684 15.022 12.516C14.8353 12.3387 14.742 12.11 14.742 11.83C14.742 11.55 14.8353 11.326 15.022 11.158C15.2087 10.99 15.4607 10.906 15.778 10.906C16.086 10.906 16.3333 10.99 16.52 11.158C16.716 11.326 16.814 11.55 16.814 11.83C16.814 12.11 16.7207 12.3387 16.534 12.516C16.3473 12.684 16.0953 12.768 15.778 12.768Z" fill="#5793CF"/>
</svg>
