<svg width="32" height="32" viewBox="0 0 32 32" fill="none" xmlns="http://www.w3.org/2000/svg">
<path d="M24.4392 19.1742C22.2076 21.395 19.0117 22.0775 16.2059 21.2L11.1034 26.2917C10.7351 26.6708 10.0092 26.8983 9.48924 26.8225L7.12758 26.4975C6.34758 26.3892 5.62174 25.6525 5.50258 24.8725L5.17758 22.5108C5.10174 21.9908 5.35091 21.265 5.70841 20.8967L10.8001 15.805C9.93341 12.9883 10.6051 9.79251 12.8367 7.57168C16.0326 4.37585 21.2217 4.37585 24.4284 7.57168C27.6351 10.7675 27.6351 15.9783 24.4392 19.1742Z" stroke="#00696E" stroke-width="1.5" stroke-miterlimit="10" stroke-linecap="round" stroke-linejoin="round"/>
<path d="M10.4642 21.9475L12.9559 24.4392" stroke="#00696E" stroke-width="1.5" stroke-miterlimit="10" stroke-linecap="round" stroke-linejoin="round"/>
<path d="M18.7083 14.9167C19.6057 14.9167 20.3333 14.1891 20.3333 13.2917C20.3333 12.3942 19.6057 11.6667 18.7083 11.6667C17.8108 11.6667 17.0833 12.3942 17.0833 13.2917C17.0833 14.1891 17.8108 14.9167 18.7083 14.9167Z" stroke="#00696E" stroke-width="1.5" stroke-linecap="round" stroke-linejoin="round"/>
</svg>
