<svg width="32" height="32" viewBox="0 0 32 32" fill="none" xmlns="http://www.w3.org/2000/svg">
<path d="M7.90576 19.1218L9.37746 11.5979H12.8114C12.8114 11.5979 9.86803 15.6492 11.8303 16.228C13.7926 16.8067 14.2831 13.3342 16.2454 14.4917C18.2076 15.6492 22.6227 19.7005 22.1322 21.4368C21.6416 23.1731 18.6982 25.4881 15.2643 24.9094C11.8303 24.3306 7.90576 19.1218 7.90576 19.1218Z" stroke="#00696E" stroke-width="1.5" stroke-linejoin="round"/>
<path d="M12.8113 11.5979C12.8113 11.5979 15.7635 10.4808 17.7169 10.4403C19.8585 10.396 23.1132 11.5979 23.1132 11.5979L24.5849 18.543L22.132 20.858" stroke="#00696E" stroke-width="1.5" stroke-linejoin="round"/>
<path d="M7.41509 21.4356L9.86792 9.28163L5.45283 8.12411L3 20.2781L7.41509 21.4356Z" stroke="#00696E" stroke-width="1.5" stroke-linecap="round" stroke-linejoin="round"/>
<path d="M25.0754 20.6364L22.6226 8.63636L26.5471 7L29 19L25.0754 20.6364Z" stroke="#00696E" stroke-width="1.5" stroke-linecap="round" stroke-linejoin="round"/>
</svg>
