<svg width="24" height="24" viewBox="0 0 24 24" fill="none" xmlns="http://www.w3.org/2000/svg">
<path d="M5.875 12H5.88375H5.875ZM12 12H12.0088H12ZM18.125 12H18.1338H18.125ZM6.75 12C6.75 12.2321 6.65781 12.4546 6.49372 12.6187C6.32962 12.7828 6.10706 12.875 5.875 12.875C5.64294 12.875 5.42038 12.7828 5.25628 12.6187C5.09219 12.4546 5 12.2321 5 12C5 11.7679 5.09219 11.5454 5.25628 11.3813C5.42038 11.2172 5.64294 11.125 5.875 11.125C6.10706 11.125 6.32962 11.2172 6.49372 11.3813C6.65781 11.5454 6.75 11.7679 6.75 12V12ZM12.875 12C12.875 12.2321 12.7828 12.4546 12.6187 12.6187C12.4546 12.7828 12.2321 12.875 12 12.875C11.7679 12.875 11.5454 12.7828 11.3813 12.6187C11.2172 12.4546 11.125 12.2321 11.125 12C11.125 11.7679 11.2172 11.5454 11.3813 11.3813C11.5454 11.2172 11.7679 11.125 12 11.125C12.2321 11.125 12.4546 11.2172 12.6187 11.3813C12.7828 11.5454 12.875 11.7679 12.875 12V12ZM19 12C19 12.2321 18.9078 12.4546 18.7437 12.6187C18.5796 12.7828 18.3571 12.875 18.125 12.875C17.8929 12.875 17.6704 12.7828 17.5063 12.6187C17.3422 12.4546 17.25 12.2321 17.25 12C17.25 11.7679 17.3422 11.5454 17.5063 11.3813C17.6704 11.2172 17.8929 11.125 18.125 11.125C18.3571 11.125 18.5796 11.2172 18.7437 11.3813C18.9078 11.5454 19 11.7679 19 12V12Z" stroke="black" stroke-width="2" stroke-linecap="round" stroke-linejoin="round"/>
<path d="M5.875 5.875H5.88375H5.875ZM12 5.875H12.0088H12ZM18.125 5.875H18.1338H18.125ZM6.75 5.875C6.75 6.10706 6.65781 6.32962 6.49372 6.49372C6.32962 6.65781 6.10706 6.75 5.875 6.75C5.64294 6.75 5.42038 6.65781 5.25628 6.49372C5.09219 6.32962 5 6.10706 5 5.875C5 5.64294 5.09219 5.42038 5.25628 5.25628C5.42038 5.09219 5.64294 5 5.875 5C6.10706 5 6.32962 5.09219 6.49372 5.25628C6.65781 5.42038 6.75 5.64294 6.75 5.875V5.875ZM12.875 5.875C12.875 6.10706 12.7828 6.32962 12.6187 6.49372C12.4546 6.65781 12.2321 6.75 12 6.75C11.7679 6.75 11.5454 6.65781 11.3813 6.49372C11.2172 6.32962 11.125 6.10706 11.125 5.875C11.125 5.64294 11.2172 5.42038 11.3813 5.25628C11.5454 5.09219 11.7679 5 12 5C12.2321 5 12.4546 5.09219 12.6187 5.25628C12.7828 5.42038 12.875 5.64294 12.875 5.875V5.875ZM19 5.875C19 6.10706 18.9078 6.32962 18.7437 6.49372C18.5796 6.65781 18.3571 6.75 18.125 6.75C17.8929 6.75 17.6704 6.65781 17.5063 6.49372C17.3422 6.32962 17.25 6.10706 17.25 5.875C17.25 5.64294 17.3422 5.42038 17.5063 5.25628C17.6704 5.09219 17.8929 5 18.125 5C18.3571 5 18.5796 5.09219 18.7437 5.25628C18.9078 5.42038 19 5.64294 19 5.875V5.875Z" stroke="black" stroke-width="2" stroke-linecap="round" stroke-linejoin="round"/>
<path d="M5.875 18.125H5.88375H5.875ZM12 18.125H12.0088H12ZM18.125 18.125H18.1338H18.125ZM6.75 18.125C6.75 18.3571 6.65781 18.5796 6.49372 18.7437C6.32962 18.9078 6.10706 19 5.875 19C5.64294 19 5.42038 18.9078 5.25628 18.7437C5.09219 18.5796 5 18.3571 5 18.125C5 17.8929 5.09219 17.6704 5.25628 17.5063C5.42038 17.3422 5.64294 17.25 5.875 17.25C6.10706 17.25 6.32962 17.3422 6.49372 17.5063C6.65781 17.6704 6.75 17.8929 6.75 18.125V18.125ZM12.875 18.125C12.875 18.3571 12.7828 18.5796 12.6187 18.7437C12.4546 18.9078 12.2321 19 12 19C11.7679 19 11.5454 18.9078 11.3813 18.7437C11.2172 18.5796 11.125 18.3571 11.125 18.125C11.125 17.8929 11.2172 17.6704 11.3813 17.5063C11.5454 17.3422 11.7679 17.25 12 17.25C12.2321 17.25 12.4546 17.3422 12.6187 17.5063C12.7828 17.6704 12.875 17.8929 12.875 18.125V18.125ZM19 18.125C19 18.3571 18.9078 18.5796 18.7437 18.7437C18.5796 18.9078 18.3571 19 18.125 19C17.8929 19 17.6704 18.9078 17.5063 18.7437C17.3422 18.5796 17.25 18.3571 17.25 18.125C17.25 17.8929 17.3422 17.6704 17.5063 17.5063C17.6704 17.3422 17.8929 17.25 18.125 17.25C18.3571 17.25 18.5796 17.3422 18.7437 17.5063C18.9078 17.6704 19 17.8929 19 18.125V18.125Z" stroke="black" stroke-width="2" stroke-linecap="round" stroke-linejoin="round"/>
</svg>
