<svg width="32" height="32" viewBox="0 0 32 32" fill="none" xmlns="http://www.w3.org/2000/svg">
<path d="M12.2083 23.5833H11.6666C7.33329 23.5833 5.16663 22.5 5.16663 17.0833V11.6666C5.16663 7.33329 7.33329 5.16663 11.6666 5.16663H20.3333C24.6666 5.16663 26.8333 7.33329 26.8333 11.6666V17.0833C26.8333 21.4166 24.6666 23.5833 20.3333 23.5833H19.7916C19.4558 23.5833 19.1308 23.7458 18.925 24.0166L17.3 26.1833C16.585 27.1366 15.415 27.1366 14.7 26.1833L13.075 24.0166C12.9016 23.7783 12.5008 23.5833 12.2083 23.5833Z" stroke="#00696E" stroke-width="1.5" stroke-miterlimit="10" stroke-linecap="round" stroke-linejoin="round"/>
<path d="M20.3295 14.9167H20.3393" stroke="#00696E" stroke-width="2" stroke-linecap="round" stroke-linejoin="round"/>
<path d="M15.9951 14.9167H16.0048" stroke="#00696E" stroke-width="2" stroke-linecap="round" stroke-linejoin="round"/>
<path d="M11.6607 14.9167H11.6704" stroke="#00696E" stroke-width="2" stroke-linecap="round" stroke-linejoin="round"/>
</svg>
