<svg width="32" height="32" viewBox="0 0 32 32" fill="none" xmlns="http://www.w3.org/2000/svg">
<path d="M16.0216 6.15247C12.4358 6.15247 9.52164 9.06663 9.52164 12.6525V15.7833C9.52164 16.4441 9.23997 17.4516 8.90414 18.015L7.65831 20.0841C6.88914 21.3625 7.41997 22.7816 8.82831 23.2583C13.4975 24.8183 18.535 24.8183 23.2041 23.2583C24.515 22.825 25.0891 21.2758 24.3741 20.0841L23.1283 18.015C22.8033 17.4516 22.5216 16.4441 22.5216 15.7833V12.6525C22.5216 9.07747 19.5966 6.15247 16.0216 6.15247Z" stroke="#292D32" stroke-width="1.5" stroke-miterlimit="10" stroke-linecap="round"/>
<path d="M18.0258 6.46668C17.69 6.36918 17.3433 6.29335 16.9858 6.25002C15.9458 6.12002 14.9491 6.19585 14.0175 6.46668C14.3316 5.66502 15.1116 5.10168 16.0216 5.10168C16.9316 5.10168 17.7116 5.66502 18.0258 6.46668Z" stroke="#292D32" stroke-width="1.5" stroke-miterlimit="10" stroke-linecap="round" stroke-linejoin="round"/>
<path d="M19.2716 23.6483C19.2716 25.4358 17.8091 26.8983 16.0216 26.8983C15.1333 26.8983 14.3099 26.53 13.7249 25.945C13.1399 25.36 12.7716 24.5366 12.7716 23.6483" stroke="#292D32" stroke-width="1.5" stroke-miterlimit="10"/>
<circle cx="21" cy="10" r="4" fill="#EB0000"/>
</svg>
