<svg width="32" height="32" viewBox="0 0 32 32" fill="none" xmlns="http://www.w3.org/2000/svg">
<path d="M26.8334 13.8333V19.25C26.8334 24.6667 24.6667 26.8333 19.2501 26.8333H12.7501C7.33341 26.8333 5.16675 24.6667 5.16675 19.25V12.75C5.16675 7.33334 7.33341 5.16667 12.7501 5.16667H18.1667" stroke="#00696E" stroke-width="1.5" stroke-linecap="round" stroke-linejoin="round"/>
<path d="M26.8334 13.8333H22.5001C19.2501 13.8333 18.1667 12.75 18.1667 9.50001V5.16667L26.8334 13.8333Z" stroke="#00696E" stroke-width="1.5" stroke-linecap="round" stroke-linejoin="round"/>
<path d="M9.84 22.036C9.724 22.036 9.63 22.002 9.558 21.934C9.49 21.862 9.456 21.766 9.456 21.646V18.136C9.456 18.02 9.488 17.93 9.552 17.866C9.62 17.802 9.712 17.77 9.828 17.77H11.304C11.756 17.77 12.108 17.884 12.36 18.112C12.612 18.336 12.738 18.652 12.738 19.06C12.738 19.468 12.612 19.786 12.36 20.014C12.108 20.242 11.756 20.356 11.304 20.356H10.23V21.646C10.23 21.766 10.194 21.862 10.122 21.934C10.054 22.002 9.96 22.036 9.84 22.036ZM11.208 19.762C11.74 19.762 12.006 19.53 12.006 19.066C12.006 18.602 11.74 18.37 11.208 18.37H10.23V19.762H11.208ZM13.7889 22C13.6729 22 13.5809 21.968 13.5129 21.904C13.4489 21.84 13.4169 21.75 13.4169 21.634V18.136C13.4169 18.02 13.4489 17.93 13.5129 17.866C13.5809 17.802 13.6729 17.77 13.7889 17.77H14.9769C15.6689 17.77 16.2049 17.956 16.5849 18.328C16.9689 18.696 17.1609 19.214 17.1609 19.882C17.1609 20.554 16.9689 21.076 16.5849 21.448C16.2049 21.816 15.6689 22 14.9769 22H13.7889ZM14.9289 21.37C15.9009 21.37 16.3869 20.874 16.3869 19.882C16.3869 18.894 15.9009 18.4 14.9289 18.4H14.1909V21.37H14.9289ZM18.3244 22.036C18.2084 22.036 18.1144 22 18.0424 21.928C17.9744 21.856 17.9404 21.762 17.9404 21.646V18.136C17.9404 18.02 17.9724 17.93 18.0364 17.866C18.1044 17.802 18.1964 17.77 18.3124 17.77H20.4184C20.6624 17.77 20.7844 17.874 20.7844 18.082C20.7844 18.286 20.6624 18.388 20.4184 18.388H18.7024V19.54H20.2984C20.5424 19.54 20.6644 19.644 20.6644 19.852C20.6644 20.056 20.5424 20.158 20.2984 20.158H18.7024V21.646C18.7024 21.762 18.6684 21.856 18.6004 21.928C18.5324 22 18.4404 22.036 18.3244 22.036Z" fill="#00696E"/>
</svg>
