<svg width="32" height="32" viewBox="0 0 32 32" fill="none" xmlns="http://www.w3.org/2000/svg">
<path d="M25.97 22.33C25.97 22.69 25.89 23.06 25.72 23.42C25.55 23.78 25.33 24.12 25.04 24.44C24.55 24.98 24.01 25.37 23.4 25.62C22.8 25.87 22.15 26 21.45 26C20.43 26 19.34 25.76 18.19 25.27C17.04 24.78 15.89 24.12 14.75 23.29C13.6 22.45 12.51 21.52 11.47 20.49C10.44 19.45 9.50997 18.36 8.67997 17.22C7.85997 16.08 7.19997 14.94 6.71997 13.81C6.23997 12.67 5.99997 11.58 5.99997 10.54C5.99997 9.86 6.11997 9.21 6.35997 8.61C6.59997 8 6.97997 7.44 7.50997 6.94C8.14997 6.31 8.84997 6 9.58997 6C9.86997 6 10.15 6.06 10.4 6.18C10.66 6.3 10.89 6.48 11.07 6.74L13.39 10.01C13.57 10.26 13.7 10.49 13.79 10.71C13.88 10.92 13.93 11.13 13.93 11.32C13.93 11.56 13.86 11.8 13.72 12.03C13.59 12.26 13.4 12.5 13.16 12.74L12.4 13.53C12.29 13.64 12.24 13.77 12.24 13.93C12.24 14.01 12.25 14.08 12.27 14.16C12.3 14.24 12.33 14.3 12.35 14.36C12.53 14.69 12.84 15.12 13.28 15.64C13.73 16.16 14.21 16.69 14.73 17.22C15.27 17.75 15.79 18.24 16.32 18.69C16.84 19.13 17.27 19.43 17.61 19.61C17.66 19.63 17.72 19.66 17.79 19.69C17.87 19.72 17.95 19.73 18.04 19.73C18.21 19.73 18.34 19.67 18.45 19.56L19.21 18.81C19.46 18.56 19.7 18.37 19.93 18.25C20.16 18.11 20.39 18.04 20.64 18.04C20.83 18.04 21.03 18.08 21.25 18.17C21.47 18.26 21.7 18.39 21.95 18.56L25.26 20.91C25.52 21.09 25.7 21.3 25.81 21.55C25.91 21.8 25.97 22.05 25.97 22.33Z" stroke="#00696E" stroke-miterlimit="10"/>
</svg>
