<svg viewBox="0 0 64 64" xmlns="http://www.w3.org/2000/svg"><path d="M44.878 30.268h-.001L26.061 19.405a2 2 0 0 0-3 1.732v21.726a1.996 1.996 0 0 0 3 1.732l18.817-10.863a2.002 2.002 0 0 0 0-3.464ZM25.06 42.863V21.137L43.877 32Z" fill="#5793cf" class="fill-000000"></path><path d="M32 2a30 30 0 1 0 30 30A30.034 30.034 0 0 0 32 2Zm0 58a28 28 0 1 1 28-28 28.031 28.031 0 0 1-28 28Z" fill="#5793cf" class="fill-000000"></path><path d="M32 8a24 24 0 1 0 24 24A24.027 24.027 0 0 0 32 8Zm0 46a22 22 0 1 1 22-22 22.025 22.025 0 0 1-22 22Z" fill="#5793cf" class="fill-000000"></path></svg>