<svg width="341" height="341" viewBox="0 0 341 341" fill="none" xmlns="http://www.w3.org/2000/svg">
<g clip-path="url(#clip0_283_2)">
<path d="M341 0H0V341H341V0Z" fill="#FAFCFC"/>
<path d="M395.134 375.1L311.589 314.146L221.65 281.325L131.711 229.322L17.0501 255.324L125.744 325.655L53.9207 374.887L17.0501 255.324L-83.9712 210.141L43.4776 162.827L-13.2137 97.6112L53.9207 33.8869L-29.4112 -26.8538M327.786 97.6112L442.021 111.209L327.786 97.6112Z" stroke="#BFCCCD" stroke-width="0.554125"/>
<path d="M157.713 385.756L125.744 325.655M-13.2136 97.6112L101.021 111.251L166.238 162.827L257.029 210.141L131.498 229.109L43.2645 162.614L-13.2136 97.6112Z" stroke="#BFCCCD" stroke-width="0.554125"/>
<path d="M221.65 281.325L246.373 358.902L311.589 314.146L358.05 255.324L257.029 210.141L221.65 281.325ZM221.65 281.325L125.744 325.655L131.711 229.322L166.238 162.827L229.749 114.661L327.786 97.6112L246.159 17.6893L157.713 44.7562L125.744 -15.345L53.9207 33.8868L101.021 111.251L43.4776 162.827L17.0501 255.324L-29.4111 314.146L54.1339 375.1" stroke="#BFCCCD" stroke-width="0.554125"/>
<path d="M166.238 162.827H43.4775M221.65 -59.675L246.586 18.1156L311.589 -26.8538L221.65 -59.675ZM257.029 210.141L229.749 114.661L101.021 111.251L157.713 44.7562L257.029 210.141ZM384.478 162.827L229.749 114.661L384.478 162.827Z" stroke="#BFCCCD" stroke-width="0.554125"/>
<path d="M43.4775 162.827L-111.251 114.661M-94.6275 17.9025L53.9207 33.8869L157.713 44.7562L229.749 114.661L246.159 17.6894L395.134 34.1L327.786 97.6112L384.478 162.827L257.029 210.141L311.589 314.146L-94.6275 17.9025ZM125.744 -15.345L246.159 17.6894L125.744 -15.345ZM246.373 358.902L125.744 325.655L246.373 358.902ZM17.05 -85.6763L54.1338 34.1L17.05 -85.6763Z" stroke="#BFCCCD" stroke-width="0.554125"/>
<path d="M327.786 99.7425C328.963 99.7425 329.918 98.7883 329.918 97.6112C329.918 96.4342 328.963 95.48 327.786 95.48C326.609 95.48 325.655 96.4342 325.655 97.6112C325.655 98.7883 326.609 99.7425 327.786 99.7425Z" fill="#8EA4A6"/>
<path d="M229.749 116.792C230.926 116.792 231.88 115.838 231.88 114.661C231.88 113.484 230.926 112.53 229.749 112.53C228.572 112.53 227.617 113.484 227.617 114.661C227.617 115.838 228.572 116.792 229.749 116.792Z" fill="#8EA4A6"/>
<path d="M257.029 212.273C258.206 212.273 259.16 211.318 259.16 210.141C259.16 208.964 258.206 208.01 257.029 208.01C255.852 208.01 254.897 208.964 254.897 210.141C254.897 211.318 255.852 212.273 257.029 212.273Z" fill="#8EA4A6"/>
<path d="M311.589 316.278C312.766 316.278 313.72 315.323 313.72 314.146C313.72 312.969 312.766 312.015 311.589 312.015C310.412 312.015 309.458 312.969 309.458 314.146C309.458 315.323 310.412 316.278 311.589 316.278Z" fill="#8EA4A6"/>
<path d="M221.65 283.456C222.827 283.456 223.781 282.502 223.781 281.325C223.781 280.148 222.827 279.194 221.65 279.194C220.473 279.194 219.519 280.148 219.519 281.325C219.519 282.502 220.473 283.456 221.65 283.456Z" fill="#8EA4A6"/>
<path d="M131.711 231.454C132.888 231.454 133.843 230.5 133.843 229.323C133.843 228.145 132.888 227.191 131.711 227.191C130.534 227.191 129.58 228.145 129.58 229.323C129.58 230.5 130.534 231.454 131.711 231.454Z" fill="#8EA4A6"/>
<path d="M125.744 327.786C126.921 327.786 127.875 326.832 127.875 325.655C127.875 324.478 126.921 323.524 125.744 323.524C124.567 323.524 123.613 324.478 123.613 325.655C123.613 326.832 124.567 327.786 125.744 327.786Z" fill="#8EA4A6"/>
<path d="M17.05 257.455C18.227 257.455 19.1812 256.501 19.1812 255.324C19.1812 254.147 18.227 253.193 17.05 253.193C15.8729 253.193 14.9187 254.147 14.9187 255.324C14.9187 256.501 15.8729 257.455 17.05 257.455Z" fill="#8EA4A6"/>
<path d="M43.4774 164.959C44.6545 164.959 45.6087 164.005 45.6087 162.827C45.6087 161.65 44.6545 160.696 43.4774 160.696C42.3004 160.696 41.3462 161.65 41.3462 162.827C41.3462 164.005 42.3004 164.959 43.4774 164.959Z" fill="#8EA4A6"/>
<path d="M54.1337 36.2313C55.3107 36.2313 56.2649 35.2771 56.2649 34.1C56.2649 32.9229 55.3107 31.9688 54.1337 31.9688C52.9566 31.9688 52.0024 32.9229 52.0024 34.1C52.0024 35.2771 52.9566 36.2313 54.1337 36.2313Z" fill="#8EA4A6"/>
<path d="M157.713 46.8875C158.89 46.8875 159.844 45.9333 159.844 44.7563C159.844 43.5792 158.89 42.625 157.713 42.625C156.535 42.625 155.581 43.5792 155.581 44.7563C155.581 45.9333 156.535 46.8875 157.713 46.8875Z" fill="#8EA4A6"/>
<path d="M246.372 20.0337C247.55 20.0337 248.504 19.0795 248.504 17.9025C248.504 16.7254 247.55 15.7712 246.372 15.7712C245.195 15.7712 244.241 16.7254 244.241 17.9025C244.241 19.0795 245.195 20.0337 246.372 20.0337Z" fill="#8EA4A6"/>
<path d="M101.021 113.382C102.198 113.382 103.152 112.428 103.152 111.251C103.152 110.074 102.198 109.12 101.021 109.12C99.8441 109.12 98.8899 110.074 98.8899 111.251C98.8899 112.428 99.8441 113.382 101.021 113.382Z" fill="#8EA4A6"/>
<path d="M166.237 164.959C167.415 164.959 168.369 164.005 168.369 162.827C168.369 161.65 167.415 160.696 166.237 160.696C165.06 160.696 164.106 161.65 164.106 162.827C164.106 164.005 165.06 164.959 166.237 164.959Z" fill="#8EA4A6"/>
</g>
<defs>
<clipPath id="clip0_283_2">
<rect width="341" height="341" fill="white"/>
</clipPath>
</defs>
</svg>
